<?xml version="1.0" standalone="no"?>
<!DOCTYPE svg PUBLIC "-//W3C//DTD SVG 1.1//EN" "http://www.w3.org/Graphics/SVG/1.1/DTD/svg11.dtd" >
<svg xmlns="http://www.w3.org/2000/svg" xmlns:xlink="http://www.w3.org/1999/xlink" version="1.1">
<metadata></metadata>
<defs>
<font id="db_ozone_xregular" horiz-adv-x="0" >
<font-face units-per-em="2048" ascent="1638" descent="-410" />
<missing-glyph horiz-adv-x="428" />
<glyph unicode="&#x2b;&#x2d;" horiz-adv-x="846" d="M94 0v106h660v-106h-660zM94 438v107h276v274h107v-274h277v-107h-277v-276h-107v276h-276z" />
<glyph unicode="&#x2e;&#x2e;&#x2e;" horiz-adv-x="1167" d="M133 74q0 16 6.5 30t17.5 25t25.5 18t30.5 7q17 0 32 -7t26 -18t17.5 -25t6.5 -30q0 -17 -6.5 -32t-17.5 -26t-26 -17.5t-32 -6.5q-16 0 -30.5 6.5t-25.5 17.5t-17.5 26t-6.5 32zM502 74q0 16 6.5 30t17.5 25t25.5 18t32.5 7q16 0 30 -7t25 -18t18 -25t7 -30 q0 -17 -7 -32t-18 -26t-25 -17.5t-30 -6.5q-17 0 -32 6.5t-26 17.5t-17.5 26t-6.5 32zM872 74q0 16 7 30t18 25t25 18t30 7q17 0 32 -7t26 -18t17.5 -25t6.5 -30q0 -17 -6.5 -32t-17.5 -26t-25.5 -17.5t-32.5 -6.5q-16 0 -30 6.5t-25 17.5t-18 26t-7 32z" />
<glyph unicode="&#x3c;&#x3d;" horiz-adv-x="848" d="M80 4v104h688v-104h-688zM80 444v94l688 269v-117l-528 -196l528 -199v-117z" />
<glyph unicode="&#x3e;&#x3d;" horiz-adv-x="846" d="M80 4h688v104h-688v-104zM80 178v117l526 199l-526 196v117l688 -269v-94z" />
<glyph unicode="&#xe4f;&#x22;" horiz-adv-x="1046" d="M92 410q0 60 15 115t43 103t67.5 87t87 67.5t102 44t113.5 15.5q60 0 115 -15.5t103.5 -44t88 -67.5t67.5 -87t43 -103t15 -115q0 -59 -15 -113.5t-43 -102.5t-67.5 -87t-88 -67t-103.5 -43t-115 -15q-59 0 -113.5 15t-102 43t-87 67t-67.5 87t-43 102.5t-15 113.5z M203 410q0 -44 11.5 -84.5t32 -76t50 -64.5t64.5 -49.5t75 -32t84 -11.5t85.5 11.5t77 32t65 49.5t50 64.5t32.5 76t12 84.5q0 67 -25.5 125.5t-69 101.5t-102 68.5t-125.5 25.5q-44 0 -84 -11.5t-75 -32.5t-64.5 -50t-50 -65t-32 -77t-11.5 -85zM284 410q0 49 19 92 t51 75.5t75 51t91 18.5q50 0 93 -18.5t75 -51t51 -76t19 -91.5t-19 -91t-51 -75t-75 -51t-93 -19q-48 0 -91 19t-75 51t-51 75t-19 91zM348 1200h125l-12 -266h-101zM381 410q0 -28 11 -54t30 -45t44.5 -30t53.5 -11q29 0 55 11t45 30t30 45q12 26 12 54q0 29 -11.5 54.5 t-30.5 44.5t-45 30.5t-55 11.5q-28 0 -53.5 -11.5t-44.5 -30.5t-30 -44.5t-11 -54.5zM565 1200h125l-12 -266h-100z" />
<glyph unicode="&#xe0e;&#xe3a;" horiz-adv-x="940" d="M58 104q42 -2 63 9t31 28t11 37t1 37v287l-78 110q66 112 161 168t222 56q90 0 156.5 -21t111.5 -62t67 -100.5t24 -136.5v-656q0 -32 -10 -56.5t-23.5 -42t-27 -27.5t-19.5 -12q-22 -11 -51 -11.5t-56 11.5l-189 86q-6 3 -11 2.5t-13 -2.5l-50 -25l-53 -26.5t-53 -27 t-51 -24.5l-63 78l240 119q12 6 21.5 9t19 2.5t19.5 -3.5q10 -2 24 -8l200 -88q8 -3 16 5q8 7 8 23v660q0 63 -15.5 106.5t-46 71.5t-75.5 40.5t-102 12.5q-32 0 -64.5 -5.5t-63 -17.5t-60 -34t-56.5 -54l61 -92v-336q0 -44 -10 -75.5t-27 -53t-39 -35t-45 -21t-45 -9.5 t-40 -2zM674 -467q0 17 6.5 32t17.5 26t25.5 17.5t32.5 6.5q17 0 31.5 -6.5t25.5 -17.5t18 -26t7 -32t-7 -32t-18 -26t-26 -17.5t-31 -6.5q-17 0 -32 6.5t-26 17.5t-17.5 26t-6.5 32z" />
<glyph unicode="&#xe0f;&#xe3a;" horiz-adv-x="942" d="M58 104q42 -2 63 9t31 28t11 37t1 37v287l-78 110q66 112 161 168t222 56q90 0 156.5 -21t111.5 -62t67 -100.5t24 -136.5v-653q0 -23 -7 -46t-20 -42.5t-31 -34.5t-39 -22.5t-44 -5.5t-48 16l-135 76q-10 4 -16.5 4t-14.5 -4l-125 -76q-26 -16 -48 -13t-40 15l-186 133 l96 55l129 -92q4 -3 10 -3q7 0 11 3l126 80q23 16 42 15q18 -1 42 -15l140 -80q6 -2 12.5 0t12 7t8.5 13t3 19v637q0 63 -15.5 106.5t-46 71.5t-75.5 40.5t-102 12.5q-32 0 -64 -5t-62.5 -17.5t-60.5 -33.5t-57 -55l61 -92v-336q0 -44 -10 -75.5t-27 -53t-39 -35t-45 -21 t-45 -9.5t-40 -2zM674 -467q0 17 6.5 32t17.5 26t25.5 17.5t32.5 6.5q17 0 31.5 -6.5t25.5 -17.5t18 -26t7 -32t-7 -32t-18 -26t-26 -17.5t-31 -6.5q-17 0 -32 6.5t-26 17.5t-17.5 26t-6.5 32z" />
<glyph unicode="&#xe0e;&#xe38;" horiz-adv-x="940" d="M58 104q42 -2 63 9t31 28t11 37t1 37v287l-78 110q66 112 161 168t222 56q90 0 156.5 -21t111.5 -62t67 -100.5t24 -136.5v-656q0 -32 -10 -56.5t-23.5 -42t-27 -27.5t-19.5 -12q-22 -11 -51 -11.5t-56 11.5l-189 86q-6 3 -11 2.5t-13 -2.5l-50 -25l-53 -26.5t-53 -27 t-51 -24.5l-63 78l240 119q12 6 21.5 9t19 2.5t19.5 -3.5q10 -2 24 -8l200 -88q8 -3 16 5q8 7 8 23v660q0 63 -15.5 106.5t-46 71.5t-75.5 40.5t-102 12.5q-32 0 -64.5 -5.5t-63 -17.5t-60 -34t-56.5 -54l61 -92v-336q0 -44 -10 -75.5t-27 -53t-39 -35t-45 -21t-45 -9.5 t-40 -2zM624 -379h52q42 0 71 -6t47 -23.5t26 -48.5t8 -81v-128h-118v126q0 19 -2 30t-7 17t-14 7.5t-21 1.5h-42v105z" />
<glyph unicode="&#xe0f;&#xe38;" horiz-adv-x="942" d="M58 104q42 -2 63 9t31 28t11 37t1 37v287l-78 110q66 112 161 168t222 56q90 0 156.5 -21t111.5 -62t67 -100.5t24 -136.5v-653q0 -23 -7 -46t-20 -42.5t-31 -34.5t-39 -22.5t-44 -5.5t-48 16l-135 76q-10 4 -16.5 4t-14.5 -4l-125 -76q-26 -16 -48 -13t-40 15l-186 133 l96 55l129 -92q4 -3 10 -3q7 0 11 3l126 80q23 16 42 15q18 -1 42 -15l140 -80q6 -2 12.5 0t12 7t8.5 13t3 19v637q0 63 -15.5 106.5t-46 71.5t-75.5 40.5t-102 12.5q-32 0 -64 -5t-62.5 -17.5t-60.5 -33.5t-57 -55l61 -92v-336q0 -44 -10 -75.5t-27 -53t-39 -35t-45 -21 t-45 -9.5t-40 -2zM624 -379h52q42 0 71 -6t47 -23.5t26 -48.5t8 -81v-128h-118v126q0 19 -2 30t-7 17t-14 7.5t-21 1.5h-42v105z" />
<glyph unicode="&#xe0e;&#xe39;" horiz-adv-x="942" d="M58 104q42 -2 63 9t31 28t11 37t1 37v287l-78 110q66 112 161 168t222 56q90 0 156.5 -21t111.5 -62t67 -100.5t24 -136.5v-656q0 -32 -10 -56.5t-23.5 -42t-27 -27.5t-19.5 -12q-22 -11 -51 -11.5t-56 11.5l-189 86q-6 3 -11 2.5t-13 -2.5l-50 -25l-53 -26.5t-53 -27 t-51 -24.5l-63 78l240 119q12 6 21.5 9t19 2.5t19.5 -3.5q10 -2 24 -8l200 -88q8 -3 16 5q8 7 8 23v660q0 63 -15.5 106.5t-46 71.5t-75.5 40.5t-102 12.5q-32 0 -64.5 -5.5t-63 -17.5t-60 -34t-56.5 -54l61 -92v-336q0 -44 -10 -75.5t-27 -53t-39 -35t-45 -21t-45 -9.5 t-40 -2zM422 -381h64q33 0 54.5 -6.5t35 -20.5t19 -37t5.5 -55v-10q0 -9 3 -19.5t9 -18.5t17 -14t29 -6q17 0 27.5 6t16.5 14t8 18.5t2 19.5v129h116v-129q0 -36 -13 -65t-36 -49t-54 -32t-67 -12q-39 0 -70.5 12t-54 32t-34 49t-11.5 65q0 16 -5.5 21t-19.5 5h-41v103z" />
<glyph unicode="&#xe0f;&#xe39;" horiz-adv-x="942" d="M58 104q42 -2 63 9t31 28t11 37t1 37v287l-78 110q66 112 161 168t222 56q90 0 156.5 -21t111.5 -62t67 -100.5t24 -136.5v-653q0 -23 -7 -46t-20 -42.5t-31 -34.5t-39 -22.5t-44 -5.5t-48 16l-135 76q-10 4 -16.5 4t-14.5 -4l-125 -76q-26 -16 -48 -13t-40 15l-186 133 l96 55l129 -92q4 -3 10 -3q7 0 11 3l126 80q23 16 42 15q18 -1 42 -15l140 -80q6 -2 12.5 0t12 7t8.5 13t3 19v637q0 63 -15.5 106.5t-46 71.5t-75.5 40.5t-102 12.5q-32 0 -64 -5t-62.5 -17.5t-60.5 -33.5t-57 -55l61 -92v-336q0 -44 -10 -75.5t-27 -53t-39 -35t-45 -21 t-45 -9.5t-40 -2zM422 -381h64q33 0 54.5 -6.5t35 -20.5t19 -37t5.5 -55v-10q0 -9 3 -19.5t9 -18.5t17 -14t29 -6q17 0 27.5 6t16.5 14t8 18.5t2 19.5v129h116v-129q0 -36 -13 -65t-36 -49t-54 -32t-67 -12q-39 0 -70.5 12t-54 32t-34 49t-11.5 65q0 16 -5.5 21t-19.5 5h-41 v103z" />
<glyph unicode="&#xd;" horiz-adv-x="485" />
<glyph unicode=" "  horiz-adv-x="428" />
<glyph unicode="&#x09;" horiz-adv-x="428" />
<glyph unicode="&#xa0;" horiz-adv-x="428" />
<glyph unicode="!" horiz-adv-x="491" d="M190 68q0 16 6.5 30t17 24t24.5 16t30 6q15 0 29 -6t24.5 -16t16.5 -24t6 -30t-6 -30.5t-16.5 -25t-24 -16.5t-29.5 -6t-30 6t-24.5 16.5t-17 25t-6.5 30.5zM207 1042h127l-16 -726h-99z" />
<glyph unicode="&#x22;" horiz-adv-x="657" d="M133 786v266h125v-266h-125zM400 786v266h124v-266h-124z" />
<glyph unicode="#" horiz-adv-x="1009" d="M108 334v98h148l35 199h-137v104h151l51 313h119l-51 -313h230l48 313h117l-49 -313h131v-104h-145l-35 -199h133v-98h-146q-14 -84 -28 -167t-26 -167h-120l56 334h-234q-12 -84 -25 -167t-26 -167h-119l54 334h-132zM375 432h229l33 199h-227q-6 -51 -17 -100t-18 -99z " />
<glyph unicode="$" horiz-adv-x="864" d="M62 127l75 82q28 -28 56.5 -48.5t58 -34.5t61.5 -21t68 -9v379l-25 2q-60 5 -109 27t-84.5 58t-55 85t-19.5 109q0 63 19.5 114.5t56 90t90.5 61.5q54 22 121 28v132h94v-132q40 -2 75.5 -10t67.5 -22t62 -35t61 -49l-73 -76q-21 20 -42.5 35t-45 26.5t-50.5 18t-59 8.5 v-372l39 -4q58 -6 108.5 -26t88.5 -55t59.5 -86t21.5 -119q0 -63 -22.5 -114.5t-64 -89.5t-99 -61t-127.5 -29v-162h-94v158q-50 2 -92.5 11.5t-80.5 27t-72 42.5t-68 60zM203 760q0 -40 14.5 -70.5t39 -51.5t57 -33.5t67.5 -16.5v358q-44 -4 -77.5 -19t-55.5 -39 t-33.5 -56.5t-11.5 -71.5zM465 96q47 4 84 18.5t63 38t40 56.5t14 73q0 46 -16 80t-44 56t-64 34t-77 13v-369z" />
<glyph unicode="%" horiz-adv-x="1229" d="M86 692v156q0 45 15 82t42.5 63.5t65 40.5t82.5 14q44 0 81.5 -14t64.5 -40.5t43 -63.5t16 -82v-156q0 -44 -16 -80.5t-43 -62t-65 -39.5t-81 -14q-44 0 -82 14t-65.5 39.5t-42.5 62t-15 80.5zM178 694q0 -56 27 -87t86 -31q30 0 51.5 8t35.5 24t21 38t7 48v150 q0 28 -7 51t-21 39.5t-35.5 25t-51.5 8.5t-51.5 -8.5t-35 -25t-20 -39.5t-6.5 -51v-150zM316 0l499 1036h101l-502 -1036h-98zM733 190v154q0 46 15.5 82t43.5 62t66 40t82 14q43 0 80.5 -14t65 -40t43.5 -62t16 -82v-154q0 -46 -16 -83t-43.5 -63.5t-65 -41t-80.5 -14.5 q-44 0 -82 14.5t-66 41t-44 64.5q-15 36 -15 82zM826 194q0 -30 6 -52.5t20 -39t35.5 -24.5t52.5 -8q29 0 50 9t34.5 25t19.5 39t6 51v148q0 28 -6 50.5t-19.5 38.5t-34.5 25t-50 9q-31 0 -52.5 -8.5t-35.5 -24.5t-20 -39t-6 -51v-148z" />
<glyph unicode="&#x26;" horiz-adv-x="1118" d="M108 297q0 39 9 72t24.5 61t37 52.5t47 46.5t54.5 42q28 19 58 39q-20 23 -40.5 47.5t-37 52.5t-27 59t-10.5 67q0 48 18 88t49.5 70t75.5 46.5t97 16.5q50 0 93 -17t74.5 -47t48.5 -71q17 -40 17 -88q0 -32 -8.5 -59t-24 -50t-37.5 -43t-48 -37q-14 -9 -28 -19 q-12 -8 -24.5 -17t-21.5 -15l264 -312q14 22 25 46t18 52t10 61.5t5 76.5h114q-2 -102 -24 -182t-72 -140l168 -196h-156l-94 112q-16 -14 -43 -35t-66 -40t-90 -33t-115 -14q-78 0 -140.5 22t-107 63t-68.5 97t-24 125zM228 301q0 -46 16 -83.5t45 -64.5t69 -42t88 -15 q28 0 58 5t60.5 16t63 30t66.5 47l-288 338q-33 -23 -65.5 -46.5t-57.5 -50.5t-40 -60t-15 -74zM344 838q0 -18 4.5 -35t15 -36t28.5 -42t44 -53q7 6 16 12q10 4 18 10l20 12q18 13 34.5 26.5t30 28.5t21.5 33t8 40q0 26 -9 47.5t-25.5 38t-38.5 25.5t-48 9q-27 0 -49 -8.5 t-37.5 -24t-24.5 -37.5q-8 -20 -8 -46z" />
<glyph unicode="'" horiz-adv-x="407" d="M142 792v269h124v-269h-124z" />
<glyph unicode="(" horiz-adv-x="456" d="M142 150v827q0 20 0.5 41t4 41.5t9.5 40.5t18 38q11 20 23 37t25.5 33t29.5 32t34 36l78 -78l-26 -26t-22 -24l-20 -24t-18 -28q-11 -24 -17.5 -57t-6.5 -73v-806q0 -38 7 -71t17 -59q8 -15 18 -27.5t20 -24.5t22 -24l26 -26l-78 -76l-34 34t-29.5 32t-25.5 32t-23 36 q-12 21 -18 41t-9.5 40.5t-4 40.5t-0.5 42z" />
<glyph unicode=")" horiz-adv-x="456" d="M90 -72l26 26t22.5 24t20 25t17.5 27q11 25 18 58q6 34 6 72v806q0 39 -6 72q-7 34 -18 58q-8 16 -17.5 28t-20 24t-22.5 24l-26 26l78 78q18 -20 34 -36t30 -32t26 -33t22 -37q22 -38 28 -79t6 -82v-827q0 -21 -1.5 -41.5t-5 -41t-9.5 -41.5q-8 -20 -18 -40 q-10 -19 -22 -35.5t-26 -32.5t-30 -32l-34 -34z" />
<glyph unicode="*" horiz-adv-x="753" d="M108 682l191 102l-191 105l46 75l182 -112l-4 217h92l-8 -217l186 112l45 -75l-191 -105l191 -102l-45 -78l-186 113l8 -219h-92l4 219l-182 -113z" />
<glyph unicode="+" horiz-adv-x="848" d="M94 370v107h276v277h107v-277h277v-107h-277v-276h-107v276h-276z" />
<glyph unicode="," horiz-adv-x="415" d="M137 140h139v-242l-139 -126v368z" />
<glyph unicode="-" horiz-adv-x="688" d="M127 370v107h434v-107h-434z" />
<glyph unicode="." horiz-adv-x="426" d="M133 74q0 16 6.5 30t17.5 25t25.5 18t30.5 7q17 0 32 -7t26 -18t17.5 -25t6.5 -30q0 -17 -6.5 -32t-17.5 -26t-26 -17.5t-32 -6.5q-16 0 -30.5 6.5t-25.5 17.5t-17.5 26t-6.5 32z" />
<glyph unicode="/" horiz-adv-x="545" d="M-12 -116l450 1359h115l-453 -1359h-112z" />
<glyph unicode="0" horiz-adv-x="762" d="M84 276v484q0 65 22.5 117.5t62 89.5t94 57t118.5 20t118.5 -20t94.5 -57t63 -89.5t23 -117.5v-484q0 -64 -23 -116t-63 -90t-95 -59t-118 -21q-64 0 -118.5 21t-94 59t-62 90t-22.5 116zM198 280q0 -40 12 -74t35.5 -59.5t57.5 -40t78 -14.5t77.5 14.5t57 40t35.5 59.5 t12 74v474q0 42 -12 77t-35.5 61t-57.5 41t-77 15q-44 0 -78 -15t-57.5 -41t-35.5 -62q-12 -34 -12 -76v-474z" />
<glyph unicode="1" horiz-adv-x="762" d="M170 738v130l202 168h116v-1036h-118v912z" />
<glyph unicode="2" horiz-adv-x="762" d="M86 0v96l422 520q29 36 45.5 72t16.5 78q0 40 -13 74t-36 58t-57.5 37t-78.5 13q-36 0 -69 -10t-58 -33t-40 -58t-15 -85h-115q0 62 21 114t59.5 89.5t93 58t123.5 20.5q66 0 121.5 -19t95.5 -55t62 -87.5t22 -116.5q0 -31 -6 -58t-17 -52t-27.5 -49.5t-37.5 -49.5 l-372 -457h460v-100h-600z" />
<glyph unicode="3" horiz-adv-x="762" d="M47 270h117q3 -48 20.5 -82.5t45 -57t62.5 -32.5q34 -10 72 -10q44 0 82 13t65 38t43 61q16 34 16 80q0 48 -12.5 85t-38 62t-64.5 38.5t-93 13.5h-26v101h26q96 0 141.5 48t45.5 136q0 44 -14.5 78t-39 57t-58 35t-73.5 12q-42 0 -75 -11.5t-57 -33.5t-38 -53.5 t-18 -71.5h-116q4 64 29 114t65.5 84t94.5 52q53 18 115 18q66 0 122 -19.5t96 -56t62 -88.5t22 -116q0 -80 -34 -138q-36 -58 -102 -92q78 -30 117 -94t39 -162q0 -72 -25 -126t-69 -91t-102 -56q-60 -19 -126 -19q-64 0 -120 17t-99 52.5t-69 89t-29 125.5z" />
<glyph unicode="4" horiz-adv-x="762" d="M39 164v100l387 772h129l-389 -770h303v293h115v-293h131v-102h-131v-164h-115v164h-430z" />
<glyph unicode="5" horiz-adv-x="762" d="M90 252h115q9 -77 53 -119.5t125 -42.5q42 0 76 13t57 34q20 18 31 42.5t16.5 52t7 56t1.5 56.5q0 30 -3 61t-10 58t-19 51t-31.5 41t-47 27t-65.5 10q-34 0 -64 -7t-52 -20.5t-38 -32t-23 -40.5h-103v544h550v-98h-447v-314q34 30 81.5 48t107.5 18q64 0 110 -18t78 -50 q30 -29 49 -62t29 -68.5t13 -73t3 -74.5q0 -38 -3 -75t-12 -72t-27 -67t-48 -60q-38 -38 -91 -60t-126 -22q-34 0 -65.5 5.5t-59 16t-51 24.5t-41.5 32q-36 36 -53.5 82t-22.5 104z" />
<glyph unicode="6" horiz-adv-x="762" d="M53 320q0 30 5.5 60t15.5 61t23.5 63t29.5 68l243 464h128l-214 -412q28 12 58 20t62 8q44 0 83 -11t72.5 -32t61 -49.5t46.5 -64.5t29 -77.5t10 -87.5q0 -72 -22.5 -134t-65 -107t-102.5 -71t-135 -26q-74 0 -134.5 23.5t-103.5 66.5t-66.5 103.5t-23.5 134.5zM170 326 q0 -52 15 -94t43 -72t66.5 -47t84.5 -17q47 0 86.5 17t68 47t44.5 72t16 94q0 46 -14 86t-42 70.5t-68 48.5t-91 18q-46 0 -84.5 -15.5t-66.5 -45t-43 -71t-15 -91.5z" />
<glyph unicode="7" horiz-adv-x="762" d="M96 778v258h602v-96l-370 -940h-125l373 938h-365v-160h-115z" />
<glyph unicode="8" horiz-adv-x="762" d="M60 284q0 46 11.5 85t32 70t49 56t62.5 43q-30 18 -54.5 41t-42 51t-27 63t-9.5 75q0 60 22.5 111t62.5 88t94.5 57t119.5 20q64 0 119.5 -20t95.5 -57t63 -88t23 -111q0 -40 -10 -75t-27 -63t-42 -51t-56 -41q33 -18 61 -43t49 -56t32 -70t11 -85q0 -64 -24 -118 t-67 -93t-101.5 -61t-126.5 -22t-126.5 22t-102 61t-68 93t-24.5 118zM176 286q0 -42 15.5 -77t43 -61t65 -41t81.5 -15t81.5 15t64.5 41t43 61t16 77q0 43 -16 79.5t-43 63.5t-65 42t-81 15q-44 0 -81.5 -15t-65 -42t-43 -63t-15.5 -80zM198 766q0 -40 14 -74t38 -57 t57.5 -36t73.5 -13q42 0 75.5 13t57 36t36.5 57t13 74q0 39 -13 72.5t-36.5 57.5t-57.5 38t-75 14q-40 0 -73.5 -14t-57.5 -38t-38 -57.5t-14 -72.5z" />
<glyph unicode="9" horiz-adv-x="762" d="M53 706q0 72 22.5 134t64.5 107t102 70t135 25q74 0 134.5 -23t104 -65.5t67 -103t23.5 -133.5q0 -32 -5 -61.5t-15 -60.5t-23.5 -63t-29.5 -67l-244 -465h-127l211 410q-26 -10 -55 -18q-30 -7 -62 -7q-66 0 -121 24.5t-95.5 67.5t-63.5 101.5t-23 127.5zM166 710 q0 -45 14 -85.5t41.5 -70.5t67 -48t90.5 -18q47 0 86 15.5t66.5 45t43 70.5t15.5 91q0 52 -15.5 94t-43 72.5t-66.5 47t-86 16.5t-86 -16.5t-67 -47t-44 -72.5t-16 -94z" />
<glyph unicode=":" horiz-adv-x="471" d="M176 72q0 16 6 30t17 25t25.5 18t31.5 7t31.5 -7t25.5 -18t17 -25t6 -30q0 -17 -6 -32t-17 -26t-25.5 -17.5t-31.5 -6.5t-31.5 6.5t-25.5 17.5t-17 26t-6 32zM176 588q0 16 6 30.5t17 25t25.5 17.5t31.5 7t31.5 -7t25.5 -17.5t17 -25t6 -30.5q0 -17 -6 -32t-17 -26 t-25.5 -17.5t-31.5 -6.5t-31.5 6.5t-25.5 17.5t-17 26t-6 32z" />
<glyph unicode=";" horiz-adv-x="471" d="M176 588q0 16 6 30.5t17 25t25.5 17.5t31.5 7t31.5 -7t25.5 -17.5t17 -25t6 -30.5q0 -17 -6 -32t-17 -26t-25.5 -17.5t-31.5 -6.5t-31.5 6.5t-25.5 17.5t-17 26t-6 32zM184 140h142v-242l-142 -126v368z" />
<glyph unicode="&#x3c;" horiz-adv-x="846" d="M80 426v94l688 266v-116l-528 -197l528 -199v-114z" />
<glyph unicode="=" horiz-adv-x="848" d="M94 240v102h660v-102h-660zM94 506v106h660v-106h-660z" />
<glyph unicode="&#x3e;" horiz-adv-x="846" d="M80 160v114l526 199l-526 197v116l688 -266v-94z" />
<glyph unicode="?" horiz-adv-x="737" d="M92 780q0 58 22 108t60 87t90 58t113 21q60 0 111.5 -19.5t90.5 -55t61 -85t22 -108.5q0 -27 -5 -50.5t-14 -45.5t-21.5 -43.5t-27.5 -42.5l-123 -172q-7 -10 -12 -21t-8 -23t-5 -22t-2 -18v-59h-116v61q0 42 13 75t36 67l119 172q10 15 19 29t16 28.5t11.5 30.5t4.5 34 q0 36 -12.5 67t-35.5 53t-54 34t-68 12q-38 0 -69.5 -14t-53.5 -37t-34 -55q-11 -32 -11 -66h-117zM312 66q0 16 5.5 30t15.5 24.5t24 17t30 6.5t30.5 -6.5t24.5 -17t16.5 -24.5t6.5 -30t-6.5 -30.5t-16.5 -25t-24.5 -16.5t-30.5 -6t-30 6t-24 16.5t-15.5 25t-5.5 30.5z" />
<glyph unicode="@" horiz-adv-x="1249" d="M60 524q2 80 23 153t59 136t90 114.5t116 88t137 56.5t152 20q81 0 153.5 -19t134 -53.5t110.5 -83.5t82 -110t50 -132.5t15 -151.5q-1 -48 -10.5 -92t-27.5 -82.5t-43 -70t-58.5 -54.5t-74 -36t-88.5 -13q-27 0 -49.5 7t-41.5 18t-33 26t-21 31q-26 -26 -51.5 -41.5 t-50.5 -24.5t-50 -12.5t-49 -3.5q-44 0 -79 15t-60 39.5t-42 57t-25 69.5t-8 75t6 74q12 66 37 126t64.5 105t93 72t122.5 27q24 0 45.5 -2t40.5 -8.5t36 -18t33 -31.5l9 46h107q-20 -110 -33.5 -186t-22.5 -125.5t-13.5 -77t-7.5 -41.5t-3 -17v-4q-2 -10 -3 -19.5t-1 -17.5 q0 -38 15 -55t44 -17q30 0 55.5 11.5t46.5 31t37 45t27 54.5t17 60q6 30 8 60q2 63 -12.5 120.5t-42 107.5t-67 90t-89 69t-108.5 44.5t-124 15.5q-62 0 -119.5 -16.5t-107.5 -47.5t-92 -73.5t-73 -94t-49 -110.5t-20 -123q-2 -69 13.5 -130.5t45 -113.5t70.5 -94t90 -71 t105 -44q54 -15 112 -15q38 0 80 5.5t82.5 17.5t78.5 31q39 18 71 44l63 -78q-40 -32 -86.5 -54.5t-95.5 -37.5t-98 -22t-95 -7q-81 0 -153.5 19.5t-134.5 56.5t-112 88t-84 114.5t-52 137t-16 153.5zM430 414.5q2 -26.5 9 -50.5t21.5 -43t36.5 -30t54 -11q40 0 71.5 16 t55 42t39.5 60.5t26 72t14.5 76.5t4.5 73q0 29 -6 55.5t-19 46.5t-36 32t-58 12q-29 0 -54 -11t-46 -29.5t-38 -43t-30 -52t-22 -56t-15 -54.5q-5 -24 -7.5 -51.5t-0.5 -54z" />
<glyph unicode="A" horiz-adv-x="895" d="M2 0l396 1036h102l393 -1036h-131l-86 234h-455l-86 -234h-133zM256 336h385l-191 524z" />
<glyph unicode="B" horiz-adv-x="977" d="M152 0v1036h384q70 0 129 -19t101.5 -54.5t66 -87t23.5 -115.5q0 -40 -11 -76t-31 -65t-48 -51t-60 -36q37 -14 67.5 -36.5t52 -54t33 -70.5t11.5 -85q0 -70 -23 -123t-65.5 -89.5t-102 -55t-130.5 -18.5h-397zM272 106h266q48 0 87.5 13t67 37t42.5 58.5t15 76.5 q0 43 -15 77t-42.5 57t-66.5 35q-40 13 -88 13h-266v-367zM272 582h256q43 0 80.5 10t64.5 31.5t42.5 55t15.5 79.5q0 45 -15.5 77.5t-42.5 53.5t-64 31t-81 10h-256v-348z" />
<glyph unicode="C" horiz-adv-x="932" d="M110 518q0 55 1 100.5t3.5 83.5t8.5 70.5t17.5 61t28.5 54t42 50.5q52 54 120.5 81t143.5 27q70 0 130.5 -21.5t106.5 -62t78 -99.5t46 -132h-121q-10 48 -31 86.5t-51.5 65.5t-70.5 42t-87 15q-51 0 -97 -18q-46 -20 -79 -52q-24 -24 -37.5 -52t-20.5 -68t-9 -96 t-2 -136q0 -53 0.5 -95.5t3 -75.5t7 -59t12 -47t19 -39t27.5 -34q32 -34 78.5 -53t97.5 -19q48 0 88 15t71.5 42.5t53 66t31.5 85.5h113l4 -2q-12 -74 -44 -132t-79 -98.5t-107.5 -61.5t-130.5 -21q-76 0 -143.5 28t-120.5 82q-38 36 -58.5 76t-29.5 89t-11 110t-2 143z" />
<glyph unicode="D" horiz-adv-x="1007" d="M152 0v1036h368q82 0 141 -19t101 -53.5t68.5 -82t41 -104t20 -120t5.5 -129.5t-4.5 -131t-18.5 -124t-39.5 -109t-67.5 -86t-102.5 -57t-144.5 -21h-368zM272 106h230q64 0 110 16t76 44t48 67.5t26.5 86t11 99.5t2.5 109t-3 108t-13 96.5t-28 81t-49 62.5t-75 40 t-106 14h-230v-824z" />
<glyph unicode="E" horiz-adv-x="882" d="M152 0v1036h669v-106h-549v-354h468v-107h-468v-363h549v-106h-669z" />
<glyph unicode="F" horiz-adv-x="829" d="M152 0v1036h649v-106h-529v-369h449v-109h-449v-452h-120z" />
<glyph unicode="G" horiz-adv-x="946" d="M112 518q0 55 1 100.5t3.5 83.5t8.5 70.5t17.5 61t28.5 54t42 50.5q52 54 119.5 81t144.5 27q74 0 136.5 -23.5t109.5 -66t77 -100.5t42 -127h-119q-10 49 -32.5 88t-53.5 66.5t-72 42t-88 14.5q-52 0 -97.5 -19t-78.5 -53q-24 -24 -37.5 -52t-20.5 -67t-9 -95t-2 -136 q0 -53 0.5 -95.5t3 -75.5t7 -59t12 -47t19 -39t27.5 -34q32 -34 77.5 -53t98.5 -19q28 0 54.5 6t51.5 17t46 27t39 38q32 38 45.5 82t13.5 102v74h-254v105h371v-168q0 -44 -5 -81.5t-16 -69.5t-28 -61t-41 -55q-56 -60 -126 -91t-151 -31q-76 0 -143.5 28t-120.5 82 q-38 36 -58.5 76t-29.5 89t-11 110t-2 143z" />
<glyph unicode="H" horiz-adv-x="1040" d="M152 0v1036h120v-460h496v460h121v-1036h-121v469h-496v-469h-120z" />
<glyph unicode="I" horiz-adv-x="444" d="M162 0v1036h118v-1036h-118z" />
<glyph unicode="J" horiz-adv-x="721" d="M6 88l82 78q13 -14 28 -27t34.5 -22.5t44 -15t57.5 -5.5q52 0 92 16t68 45.5t42.5 73.5t14.5 101v704h119v-720q0 -76 -25 -136t-69.5 -102.5t-106 -65t-135.5 -22.5t-134 24t-112 74z" />
<glyph unicode="K" horiz-adv-x="954" d="M152 0v1036h120v-582l490 582h152l-340 -401l384 -635h-137l-329 545l-220 -256v-289h-120z" />
<glyph unicode="L" horiz-adv-x="813" d="M152 0v1036h120v-930h516v-106h-636z" />
<glyph unicode="M" horiz-adv-x="1220" d="M152 0v1036h108l356 -739l344 739h109v-1036h-121v774l-282 -608h-105l-289 606v-772h-120z" />
<glyph unicode="N" horiz-adv-x="1102" d="M152 0v1036h100l578 -821v821h120v-1036h-100l-578 824v-824h-120z" />
<glyph unicode="O" horiz-adv-x="942" d="M106 518q0 55 1 100.5t3.5 83.5t8.5 70.5t17.5 61t28.5 54t42 50.5q54 54 120.5 81t145.5 27q76 0 143 -28q68 -28 122 -80q24 -25 41 -50.5t28 -54t16.5 -61t8 -70.5t3.5 -83.5t1 -100.5q0 -82 -2 -143t-11 -110t-29 -89t-56 -76q-54 -53 -121.5 -81.5t-143.5 -28.5 q-79 0 -145.5 28t-120.5 82q-38 36 -58.5 76t-29.5 89t-11 110t-2 143zM226 518q0 -80 2 -135t9.5 -94t21.5 -67t38 -52q31 -36 77 -55t99 -19q50 0 96 19t80 55q23 24 36.5 52t20.5 67t9 94t2 135t-2 136t-9 95t-20.5 67t-36.5 52q-34 34 -80.5 53t-95.5 19 q-52 0 -98.5 -19t-77.5 -53q-24 -24 -38 -52t-21.5 -67t-9.5 -95t-2 -136z" />
<glyph unicode="P" horiz-adv-x="913" d="M152 0v1036h380q74 0 135 -21t105 -60.5t68 -96.5t24 -127t-24 -126.5t-68 -96.5t-105 -61t-135 -21h-260v-426h-120zM272 528h250q50 0 90.5 13t70 39t45.5 63.5t16 87.5t-16 87.5t-45.5 62.5t-70 37t-90.5 12h-250v-402z" />
<glyph unicode="Q" horiz-adv-x="942" d="M106 518q0 55 1 100.5t3.5 83.5t8.5 70.5t17.5 61t28.5 54t42 50.5q54 54 120.5 81t145.5 27q76 0 143 -28q68 -28 122 -80q24 -25 41 -50.5t28 -54t16.5 -61t8 -70.5t3.5 -83.5t1 -100.5q0 -74 -2 -131.5t-8.5 -103.5t-21 -83t-40.5 -69l114 -113l-71 -67l-113 113 q-46 -36 -102.5 -55t-118.5 -19q-79 0 -145.5 28t-120.5 82q-38 36 -58.5 76t-29.5 89t-11 110t-2 143zM226 518q0 -80 2 -135t9.5 -94t21.5 -67t38 -52q31 -36 77 -55t99 -19q39 0 73 12t66 36l-128 128l71 72l123 -125q13 23 20.5 50t11.5 62.5t5.5 81t1.5 105.5 q0 80 -2 136t-9 95t-20.5 67t-36.5 52q-34 34 -80.5 53t-95.5 19q-52 0 -98.5 -19t-77.5 -53q-24 -24 -38 -52t-21.5 -67t-9.5 -95t-2 -136z" />
<glyph unicode="R" horiz-adv-x="977" d="M152 0v1036h411q70 0 129.5 -19.5t102 -57t66 -90.5t23.5 -119q0 -57 -17 -104t-47.5 -82.5t-73 -59.5t-92.5 -35q62 -118 127 -235.5t127 -233.5h-138l-244 456h-254v-456h-120zM272 561h281q46 0 84.5 11.5t66.5 34.5t43 58.5t15 82.5q0 46 -15 79.5t-43 56.5 t-66.5 34.5t-84.5 11.5h-281v-369z" />
<glyph unicode="S" horiz-adv-x="825" d="M56 129l75 80q32 -32 62.5 -53.5t64.5 -34.5t71 -19t81 -6q54 0 98 13t75 37t47 58q17 34 17 78q0 42 -13.5 73t-37.5 52t-57 34t-72 18l-119 16q-56 8 -105 29t-86 55.5t-58 83.5t-21 111q0 65 23 118.5t67 91.5t106 59t138 21q48 0 90 -6.5t79 -21t71 -36.5t67 -52 l-74 -74q-24 22 -49 39t-53.5 28t-61.5 17t-73 6q-50 0 -90 -14t-67 -39t-41 -59t-14 -76q0 -37 14.5 -66t39 -50.5t57.5 -34.5t70 -19l111 -18q54 -9 104 -30.5t88 -56.5t61 -84t23 -113q0 -68 -26 -122t-73 -92t-112 -59t-145 -21q-58 0 -107 8t-91.5 25t-80 43t-73.5 63z " />
<glyph unicode="T" horiz-adv-x="786" d="M22 930v106h740v-106h-312v-930h-118v930h-310z" />
<glyph unicode="U" horiz-adv-x="1007" d="M137 344v692h123v-684q0 -58 16.5 -105t48 -80.5t76.5 -52t103 -18.5t103 18.5t77 52t49 80.5t17 105v684h120v-692q0 -78 -26.5 -143t-75 -112t-115.5 -73t-149 -26t-149 26t-116 73t-75.5 112t-26.5 143z" />
<glyph unicode="V" horiz-adv-x="819" d="M8 1036h127l273 -821l272 821h131l-352 -1036h-101z" />
<glyph unicode="W" horiz-adv-x="1259" d="M10 1036h130l204 -827q58 206 116 414q58 207 116 413h108l232 -827q50 206 102 414q50 207 102 413h130l-275 -1036h-113l-234 826l-230 -826h-116z" />
<glyph unicode="X" horiz-adv-x="792" d="M-2 0l330 530l-308 506h142l234 -399l235 399h139l-307 -506l329 -530h-140l-256 430l-259 -430h-139z" />
<glyph unicode="Y" horiz-adv-x="770" d="M6 1036h131l248 -487l248 487h131l-318 -606v-430h-120v430z" />
<glyph unicode="Z" horiz-adv-x="817" d="M74 0v110l526 820h-506v106h648v-96l-533 -834h533v-106h-668z" />
<glyph unicode="[" horiz-adv-x="467" d="M142 -116v1359h278v-103h-166v-1156h166v-100h-278z" />
<glyph unicode="\" horiz-adv-x="545" d="M-6 1239h112l451 -1355h-115z" />
<glyph unicode="]" horiz-adv-x="467" d="M49 -16h166v1156h-166v103h281v-1359h-281v100z" />
<glyph unicode="^" horiz-adv-x="829" d="M104 565l260 483h103l258 -483h-117l-192 363l-195 -363h-117z" />
<glyph unicode="_" horiz-adv-x="829" d="M0 -180h830v-92h-830v92z" />
<glyph unicode="`" horiz-adv-x="772" d="M205 1073h131l158 -243h-115z" />
<glyph unicode="a" horiz-adv-x="796" d="M60 219q0 52 17 94.5t51 73t85 47t117 16.5h233v70q0 42 -11 74t-35 53t-61.5 32t-91.5 11q-34 0 -62 -5t-52 -16t-45 -27.5t-39 -39.5l-76 70q30 33 59 55t61.5 35.5t70.5 18.5q37 5 85 5q156 0 234 -64q78 -66 78 -194v-528h-115v76q-24 -24 -47.5 -40t-49.5 -26.5 t-57 -15t-69 -4.5q-54 0 -104.5 13t-89.5 40.5t-62.5 71t-23.5 104.5zM170 221q0 -68 43 -100.5t135 -32.5q26 0 49 1.5t45 7t42 15.5q20 12 40 30t30 50q9 32 9 82v80h-219q-88 0 -131 -32t-43 -101z" />
<glyph unicode="b" horiz-adv-x="841" d="M123 0v1126h115v-436q24 29 50 47.5t54 29.5t58 15t63 4q60 0 105 -15t78.5 -42t55.5 -64t35 -81.5t19 -94t6 -100.5q0 -48 -5 -96.5t-18 -92.5t-35 -82.5t-55 -67t-79 -44.5t-107 -16q-32 0 -63.5 7t-60.5 21.5t-55 37t-46 52.5v-108h-115zM238 389q0 -30 5.5 -64.5 t17 -67.5t28 -63t39 -52.5t50.5 -36t62 -13.5q44 0 76 11.5t55 32t37 48.5t22.5 61t11.5 69.5t3 74.5t-3 74.5t-11.5 70t-22.5 62t-37 48.5t-55 32t-76 12t-76 -12t-54.5 -32t-36.5 -48.5t-22 -62t-10.5 -70t-2.5 -74.5z" />
<glyph unicode="c" horiz-adv-x="753" d="M90 389q0 100 26 174.5t72.5 124t110 74t137.5 24.5q41 0 75 -5t64.5 -18.5t59.5 -36t59 -54.5l-78 -72q-22 24 -42 41t-41 27t-45 15t-52 5q-42 0 -76 -11.5t-60 -32t-44 -48.5t-30 -61t-17.5 -70t-5.5 -76q0 -36 5 -71.5t16.5 -68.5t29.5 -62t44 -50t60 -33t78 -12 q28 0 52 4.5t45 15t41 27.5t42 41l78 -74q-31 -33 -59.5 -55t-59 -35.5t-64.5 -19.5t-75 -6q-74 0 -137.5 25t-110 75t-72.5 124.5t-26 174.5z" />
<glyph unicode="d" horiz-adv-x="841" d="M80 389q0 51 6 100.5t19 94t35 81.5t55.5 64t79 42t104.5 15q33 0 63 -4t58 -15t54 -29.5t50 -47.5v436h115v-1126h-115v108q-20 -31 -46 -53t-54.5 -36.5t-60 -21.5t-64.5 -7q-61 0 -107 16t-79 44.5t-55 67t-35 82.5t-18 92.5t-5 96.5zM196 389q0 -38 3 -74.5t12 -69.5 t23 -61t37 -48.5t56 -32t77 -11.5q33 0 60.5 13.5t50 36t39 52.5t28 63t17 67t5.5 65q0 38 -3 74.5t-10.5 70t-21.5 62t-36.5 48.5t-54.5 32q-30 12 -74 12t-77 -12t-56 -32t-37 -48.5t-23 -62t-12 -70t-3 -74.5z" />
<glyph unicode="e" horiz-adv-x="803" d="M78 389q0 94 22 168.5t64 125t102 77t136 26.5t136 -26t101.5 -74.5t63.5 -118t22 -155.5v-52h-533q0 -64 15.5 -114t45 -85t72.5 -53t99 -18q34 0 62 5t53 16t47 27.5t45 39.5l77 -66q-30 -31 -59 -53.5t-63 -38t-74 -23t-90 -7.5q-78 0 -141 23.5t-108 72t-70 124.5 t-25 179zM192 444h416q-2 30 -7 60t-16 57t-27 51t-38.5 41t-52 27t-65.5 10q-54 0 -93 -20t-64 -54t-37 -78q-12 -46 -16 -94z" />
<glyph unicode="f" horiz-adv-x="442" d="M41 690v88h101v146q0 44 12 82t37 67t62 45t87 16h82v-98h-62q-56 0 -81 -30t-25 -84v-144h168v-88h-168v-690h-112v690h-101z" />
<glyph unicode="g" horiz-adv-x="841" d="M84 398q0 48 5 95t17 90t34 80t54.5 65t78 43t106.5 15q33 0 64 -4t59 -15t54 -31t50 -52v94h113v-813q0 -73 -22 -134t-64.5 -105.5t-104.5 -69t-143 -24.5q-46 0 -82.5 6t-68.5 18t-62 32q-30 19 -60 46l74 74q23 -18 43.5 -33t42 -25t48 -15t61.5 -5q58 0 100.5 18.5 t69.5 51t40 76.5t13 94v120q-26 -29 -52 -47.5t-54 -29.5t-58 -15t-63 -4q-58 0 -102.5 16t-76.5 44t-54 66t-35 83t-19 94t-6 101zM196 398q0 -37 3 -73.5t12 -70.5t23.5 -62.5t38 -50t55.5 -33.5q34 -12 78 -12t75 12t53 33.5t36 50t21.5 62.5t10 70.5t2.5 73.5 q0 34 -4 69t-12.5 67t-23.5 60t-37.5 49t-53.5 33t-71 12q-44 0 -77 -11.5t-56 -32t-37 -48.5t-22 -60t-11 -68q-3 -34 -3 -70z" />
<glyph unicode="h" horiz-adv-x="852" d="M123 0v1126h115v-434q44 50 98 72t120 22t118 -20t88 -57t54.5 -90t18.5 -119v-500h-113v482q0 52 -13 90t-38 64t-60 39t-79 13q-42 0 -77 -15t-61.5 -43t-41 -66t-14.5 -82v-482h-115z" />
<glyph unicode="i" horiz-adv-x="397" d="M121 1063q0 16 6 29.5t16.5 24t24.5 16t30 5.5t30.5 -5.5t25 -16t16.5 -24t6 -29.5t-6 -30.5t-16.5 -24.5t-25 -16.5t-30.5 -6.5t-30 6.5t-24.5 16.5t-16.5 24.5t-6 30.5zM142 0h112v778h-112v-778z" />
<glyph unicode="j" horiz-adv-x="397" d="M-24 -270v-98h80q52 0 89 16t61 44t36 66t12 82v938h-112v-934q0 -28 -5.5 -49.5t-17.5 -36t-32 -21.5t-50 -7h-61zM121 1063q0 16 6 29.5t16.5 24t24.5 16t30 5.5t30.5 -5.5t25 -16t16.5 -24t6 -29.5t-6 -30.5t-16.5 -24.5t-25 -16.5t-30.5 -6.5t-30 6.5t-24.5 16.5 t-16.5 24.5t-6 30.5z" />
<glyph unicode="k" horiz-adv-x="801" d="M123 0v1126h115v-754l352 406h141l-264 -296l309 -482h-141l-246 400l-151 -174v-226h-115z" />
<glyph unicode="l" horiz-adv-x="413" d="M123 209v917h117v-915q0 -28 5 -49t17 -35t32 -21.5t50 -7.5h62v-98h-84q-52 0 -89.5 16t-62 43.5t-36 66t-11.5 83.5z" />
<glyph unicode="m" horiz-adv-x="1366" d="M123 0v778h115v-104q39 56 96.5 84t121.5 28q82 0 143 -32t97 -96q92 128 258 128q60 0 112.5 -21t91 -59t60 -91t21.5 -117v-498h-117v479q0 52 -13 91.5t-37.5 65.5t-60 39t-79.5 13q-42 0 -78 -13t-62 -38t-40 -61t-14 -82v-494h-114v479q0 52 -13.5 91.5t-38.5 65.5 t-60.5 39t-79.5 13q-40 0 -75 -19t-62 -51t-42 -73t-15 -84v-461h-115z" />
<glyph unicode="n" horiz-adv-x="852" d="M123 0v778h115v-104q39 52 94 82q54 30 124 30q62 0 114 -21t88 -59t56.5 -91t20.5 -117v-498h-113v479q0 52 -13 91.5t-38 65.5t-60.5 39t-78.5 13q-37 0 -71.5 -18.5t-62.5 -49t-44 -71.5t-16 -84v-465h-115z" />
<glyph unicode="o" horiz-adv-x="827" d="M84 389q0 50 7 99.5t23 93.5t42 82t62 65t85 42t111 15q60 0 107.5 -14t84 -40.5t62.5 -63t43 -80.5t25 -94.5t8 -104.5q0 -50 -7 -99.5t-23 -94t-41.5 -82t-62 -65t-85.5 -43t-111 -15.5q-89 0 -152 32t-102.5 87t-57.5 127t-18 153zM196 389q0 -34 4 -68.5t13.5 -67.5 t25.5 -62t40 -51t57.5 -35t77.5 -13q42 0 74 11.5t56 32t41 48.5t27 61t14.5 69.5t4.5 74.5q0 34 -3.5 69.5t-11.5 69t-23.5 63t-40 51t-58.5 34t-80 12.5q-42 0 -74 -12t-56 -33t-41 -50t-27 -62t-15 -69t-5 -73z" />
<glyph unicode="p" horiz-adv-x="841" d="M123 -348v1126h115v-108q21 30 46.5 52t54.5 36.5t60 21t64 6.5q61 0 107 -16t79 -44t55 -66t35 -82t18 -92.5t5 -96.5q0 -52 -6 -101.5t-19 -93.5t-35 -82t-55.5 -65t-79 -42t-104.5 -15q-32 0 -62.5 4t-58.5 15.5t-54 30t-50 48.5v-436h-115zM238 389q0 -38 2.5 -74.5 t10.5 -70t22 -62t36.5 -48.5t54.5 -32t76 -12t76 12t55 32t37 48.5t22.5 62t11.5 70t3 74.5t-3 74.5t-11.5 69.5t-22.5 61t-37 48.5t-55 32t-76 11.5q-34 0 -62 -13.5t-50.5 -36t-39 -52.5t-28 -63t-17 -67t-5.5 -65z" />
<glyph unicode="q" horiz-adv-x="841" d="M80 389q0 48 5 96.5t18 92.5t35 82t55 66t79 44t107 16q33 0 64.5 -6.5t60 -21t54.5 -36.5t46 -52v108h115v-1126h-115v436q-24 -30 -50 -48.5t-54 -30t-58 -15.5t-63 -4q-60 0 -105 15t-78.5 42t-55.5 65t-35 82t-19 93.5t-6 101.5zM196 389q0 -38 3 -74.5t12 -70 t23 -62t37 -48.5t56 -32t77 -12t75 12t53.5 32t36.5 48.5t21.5 62t10.5 70t3 74.5q0 30 -5.5 64.5t-17 67.5t-28 63t-39 52.5t-50.5 36t-60 13.5q-44 0 -77 -11.5t-56 -32t-37 -48.5t-23 -61t-12 -69.5t-3 -74.5z" />
<glyph unicode="r" horiz-adv-x="551" d="M123 0v778h115v-104q16 24 39.5 45t52 36t60.5 23t66 8q36 0 65 -5t59 -19l-74 -92q-17 10 -36.5 14t-45.5 4q-40 0 -74 -18t-59 -47t-39 -67t-14 -79v-477h-115z" />
<glyph unicode="s" horiz-adv-x="745" d="M65 106l75 82q22 -25 47 -42.5t53 -28.5t58 -16t62 -5q44 0 78 9t57.5 25t36 41t12.5 59q0 48 -26 74q-26 28 -84 32l-121 10q-106 11 -161.5 63t-55.5 150q0 54 20 96t56 71.5t85 44.5t105 15q80 0 148 -20.5t118 -64.5l-76 -83q-42 33 -89 48.5t-103 15.5 q-74 0 -112 -32t-38 -89q0 -46 28 -74.5t90 -34.5q28 -2 57 -4t58 -5q47 -4 86.5 -17.5t68 -38.5t44.5 -63.5t16 -93.5q0 -56 -22 -101t-61 -76t-94 -47t-121 -16q-44 0 -84 6t-77 20t-70 36t-64 54z" />
<glyph unicode="t" horiz-adv-x="475" d="M39 690v88h98v244h113v-244h166v-88h-166v-479q0 -52 26 -83q24 -30 80 -30h60v-98h-80q-50 0 -87 16t-62 44.5t-37.5 66.5t-12.5 82v481h-98z" />
<glyph unicode="u" horiz-adv-x="854" d="M119 278v500h113v-479q0 -52 13 -91.5t38 -65.5t60.5 -39t78.5 -13q39 0 74.5 18.5t62 49.5t42 71.5t15.5 84.5v464h113v-778h-113v104q-20 -26 -43 -47t-51 -36t-59 -23t-65 -8q-62 0 -114 21t-88 59t-56.5 91t-20.5 117z" />
<glyph unicode="v" horiz-adv-x="776" d="M49 778h125l213 -624l217 624h125l-289 -778h-102z" />
<glyph unicode="w" horiz-adv-x="1220" d="M49 778h125l180 -624l207 624h99l206 -624l180 624h126l-246 -778h-109l-207 604l-204 -604h-107z" />
<glyph unicode="x" horiz-adv-x="731" d="M39 0l264 398l-252 380h135l180 -286l176 286h138l-252 -380l264 -398h-139l-187 303l-188 -303h-139z" />
<glyph unicode="y" horiz-adv-x="776" d="M49 778h125l215 -624l215 624h125l-367 -985q-25 -68 -78 -105q-52 -38 -130 -38h-50v98h36q29 0 49 5t34.5 17t24.5 31t20 45l66 170z" />
<glyph unicode="z" horiz-adv-x="717" d="M76 0v98l432 580h-410v100h543v-96l-434 -580h434v-102h-565z" />
<glyph unicode="{" horiz-adv-x="510" d="M49 512v102h43q22 0 41 8t31 21q14 14 21 37q7 24 7 58v302q0 30 3 54t8 42t14 32.5t23 27.5q12 13 27 22t35 14.5t44 8t54 2.5h59v-103h-37h-36t-26 -2t-18.5 -6t-13.5 -10q-14 -12 -18.5 -36.5t-4.5 -67.5v-297q0 -34 -7 -58.5t-19.5 -43.5t-31 -32t-40.5 -24 q22 -10 40.5 -23.5t31 -32.5t19.5 -44t7 -59v-296q0 -22 1 -38.5t3.5 -29t6.5 -21t12 -15.5q6 -6 13.5 -10t18.5 -6t26 -3t36 -1h37v-100h-59q-60 0 -98 11t-62 35q-13 13 -22.5 27.5t-14.5 32.5t-8 41.5t-3 54.5v303q0 65 -28 97q-12 10 -31 18t-41 8h-43z" />
<glyph unicode="|" horiz-adv-x="510" d="M196 -116v1359h116v-1359h-116z" />
<glyph unicode="}" horiz-adv-x="510" d="M49 -16h37q22 0 37 1t26 3t18 6t13 10q7 7 11.5 15.5t7 21t3.5 29t1 38.5v296q0 34 7 59t20 44t31.5 32t41.5 24q-23 11 -41.5 24t-31.5 32t-20 43.5t-7 58.5v297q0 43 -4.5 67.5t-18.5 36.5q-6 6 -13 10t-18 6t-26 2h-37h-37v103h61q29 0 53 -2.5t43.5 -8t35.5 -14.5 t28 -22q13 -13 21.5 -27.5t14 -32.5t8.5 -42q2 -24 2 -54v-302q0 -34 7 -57.5t21 -37.5q12 -12 31 -20.5t41 -8.5h43v-102h-43q-22 0 -41 -8t-31 -18q-28 -32 -28 -97v-303q0 -31 -2.5 -54.5t-8 -41.5t-13.5 -32t-22 -28q-13 -12 -28.5 -21t-35 -14.5t-43 -8t-53.5 -2.5h-61 v100z" />
<glyph unicode="~" horiz-adv-x="829" d="M66 418q33 33 58.5 54t49.5 33.5t47 16.5t49 4q22 0 46 -6t49 -16t50 -21.5t49.5 -21t49 -16.5t47.5 -7q16 0 30 2.5t28.5 10t32 21.5t40.5 38l72 -72q-33 -34 -59 -54.5t-49.5 -32t-46 -15.5t-48.5 -4q-24 0 -48.5 6t-49 16t-49 21t-49.5 21t-49 16t-48 6 q-17 0 -30.5 -2.5t-28.5 -10t-32.5 -22t-41.5 -37.5z" />
<glyph unicode="&#xa2;" horiz-adv-x="803" d="M92 532q0 78 18 143t53 112t85 77t116 39v113h99v-111q30 -2 58 -9.5t55.5 -22.5t55.5 -37q27 -24 56 -54l-78 -65q-38 46 -73 67.5t-74 26.5v-553q43 3 79 26.5t70 67.5l76 -63q-29 -34 -56.5 -57.5t-55 -38.5t-55.5 -22t-58 -9v-140h-99v146q-66 8 -116 37t-85 76 t-53 111t-18 140zM200 532q0 -40 8 -82.5t27 -80t51 -66t78 -39.5v537q-46 -12 -77 -38.5t-50.5 -62t-28 -79t-8.5 -89.5z" />
<glyph unicode="&#xa3;" horiz-adv-x="790" d="M45 484v88h101v155q0 74 24 134t68 102.5t107 65.5t141 23q77 0 141 -25q65 -25 123 -79l-84 -78q-16 16 -34 31t-39.5 26t-48 17t-58.5 6q-54 0 -95.5 -15.5t-69.5 -46t-42.5 -74.5t-14.5 -102v-140h240v-88h-240v-382h478v-102h-596v484h-101z" />
<glyph unicode="&#xa5;" horiz-adv-x="856" d="M49 1036h131l248 -487l248 487h131l-237 -452h174v-90h-222l-32 -64v-70h254v-90h-254v-270h-122v270h-260v90h260v70l-34 64h-226v90h176z" />
<glyph unicode="&#xa9;" horiz-adv-x="1333" d="M112 532q0 77 20 148.5t56 133.5t86.5 112t112 86t131.5 56q72 20 148 20q78 0 149 -20t132 -56t112 -86t87 -112t55 -133.5t19 -148.5q0 -76 -19 -146t-55 -131.5t-87 -112t-112 -86.5t-133 -56q-70 -20 -148 -20q-76 0 -147 20t-132.5 56t-112 86.5t-86.5 112 t-56 131.5t-20 146zM219 532q0 -60 16.5 -117t45.5 -107t70 -92t90.5 -72t106 -47t118.5 -17t119 17t106.5 47t90.5 72t70.5 92t45.5 107t16 117q0 62 -16 120t-45.5 108t-70.5 91.5t-90.5 71t-107.5 45.5q-56 17 -118 17q-61 0 -118 -16.5t-106.5 -46t-90.5 -71t-70 -91.5 t-45.5 -108t-16.5 -120zM412 536q0 64 16 121.5t50 100t85 67.5t121 25q32 0 59.5 -5.5t53 -17t50.5 -28.5t54 -41l-73 -72q-20 18 -38 31t-34.5 20.5t-34 11t-37.5 3.5q-47 0 -78.5 -18t-51.5 -47t-28 -68t-8 -83q0 -42 8 -80.5t28 -68t51.5 -46.5t78.5 -17q20 0 37.5 2.5 t34.5 10t34.5 20t39.5 32.5l63 -73l-2 -7q-26 -23 -49.5 -39t-47.5 -27t-51 -15.5t-59 -4.5q-70 0 -121 25t-85 68t-50 99.5t-16 120.5z" />
<glyph unicode="&#xab;" horiz-adv-x="850" d="M45 428l332 332v-142l-191 -190l191 -190v-142zM402 428l331 332v-142l-191 -190l191 -190v-142z" />
<glyph unicode="&#xad;" horiz-adv-x="688" d="M127 370v107h434v-107h-434z" />
<glyph unicode="&#xae;" horiz-adv-x="1333" d="M112 532q0 77 20 148.5t56 133.5t86.5 112t112 86t131.5 56q72 20 148 20q78 0 149 -20t132 -56t112 -86t87 -112t55 -133.5t19 -148.5q0 -76 -19 -146t-55 -131.5t-87 -112t-112 -86.5t-133 -56q-70 -20 -148 -20q-76 0 -147 20t-132.5 56t-112 86.5t-86.5 112 t-56 131.5t-20 146zM219 532q0 -60 16.5 -117t45.5 -107t70 -92t90.5 -72t106 -47t118.5 -17t119 17t106.5 47t90.5 72t70.5 92t45.5 107t16 117q0 62 -16 120t-45.5 108t-70.5 91.5t-90.5 71t-107.5 45.5q-56 17 -118 17q-61 0 -118 -16.5t-106.5 -46t-90.5 -71t-70 -91.5 t-45.5 -108t-16.5 -120zM490 232v604h202q39 0 74 -14.5t61.5 -39.5t41.5 -59t15 -74q0 -32 -8 -59.5t-23 -49t-36 -37.5t-47 -26l150 -245h-128l-138 233h-60v-233h-104zM594 561h90q22 0 40 6t31 17.5t20 28t7 36.5t-7 36t-20 27.5t-31 18.5t-40 7h-90v-177z" />
<glyph unicode="&#xbb;" horiz-adv-x="850" d="M116 96v142l191 190l-191 190v142l332 -332zM473 96v142l191 190l-191 190v142l334 -332z" />
<glyph unicode="&#xbc;" horiz-adv-x="1196" d="M100 840v88l130 108h79v-624h-86v526zM284 0l519 1036h94l-516 -1036h-97zM717 96v64l239 466h90l-233 -456h164v170h84v-170h79v-74h-79v-96h-84v96h-260z" />
<glyph unicode="&#xbd;" horiz-adv-x="1196" d="M100 840v88l130 108h79v-624h-86v526zM264 0l520 1036h96l-520 -1036h-96zM764 0v68l258 307q17 22 24.5 40.5t7.5 43.5q0 46 -27 73t-75 27q-21 0 -39.5 -6t-33 -19.5t-23 -34.5t-8.5 -51h-84q0 40 14 74t38.5 59t59 38.5t76.5 13.5t77 -12.5t60 -35.5t38 -55t13 -71 q0 -20 -3 -36.5t-10 -32t-17 -31t-24 -31.5l-220 -252h274v-76h-376z" />
<glyph unicode="&#xbe;" horiz-adv-x="1196" d="M76 588h88q3 -30 13.5 -50t26.5 -32.5t36 -18t40 -5.5q24 0 45.5 7t37 21t24.5 34.5t9 47.5q0 50 -30 77t-92 27h-18v74h18q56 0 82.5 26t26.5 72q0 26 -8.5 45t-23 32t-33 19.5t-40.5 6.5q-48 0 -75.5 -26.5t-30.5 -74.5h-86q4 42 20 75t41.5 55t59 34t71.5 12 q42 0 77.5 -12t60.5 -35t39 -55q14 -34 14 -74q0 -42 -19.5 -76t-53.5 -56q42 -22 64 -58.5t22 -87.5q0 -46 -16 -81t-43 -58t-64 -34t-79 -11q-40 0 -76 10t-63.5 32.5t-44.5 56.5t-20 81zM352 0q62 125 128.5 255.5t134 262.5t133.5 262t128 256h95l-523 -1036h-96z M738 96v64q57 114 118.5 232t118.5 234h92l-235 -456h164v170h86v-170h77v-74h-77v-96h-86v96h-258z" />
<glyph unicode="&#xd7;" horiz-adv-x="829" d="M92 176l250 250l-250 250l74 72l248 -250l250 250l74 -72l-250 -250l250 -250l-74 -74l-250 250l-248 -250z" />
<glyph unicode="&#xf7;" horiz-adv-x="829" d="M80 370v107h668v-107h-668zM334 158q0 17 6 31.5t17 25.5t25 18t32 7q17 0 31.5 -7t25.5 -18t18 -26t7 -31q0 -17 -7 -31.5t-18 -25.5t-26 -17t-31 -6q-17 0 -31.5 6t-25.5 17t-17 25.5t-6 31.5zM334 692q0 17 6 32t17 26t25 17.5t32 6.5q17 0 31.5 -6.5t25.5 -17.5 t18 -26t7 -32q0 -16 -7 -30.5t-18 -25.5t-26 -17.5t-31 -6.5q-17 0 -31.5 6.5t-25.5 17.5t-17 25.5t-6 30.5z" />
<glyph unicode="&#xe01;" horiz-adv-x="905" d="M51 610q66 112 160.5 169t222.5 57q90 0 157 -22t111 -63t66 -100.5t22 -136.5v-514h-118v500q0 63 -16 106.5t-46.5 71.5t-75 40.5t-102.5 12.5q-31 0 -63.5 -6t-64 -19.5t-61 -35.5t-55.5 -54l60 -92v-524h-119v500z" />
<glyph unicode="&#xe02;" horiz-adv-x="780" d="M60 744q16 20 35 37t41.5 28.5t46 18t47.5 6.5q42 0 75 -12t56.5 -33t36 -52t12.5 -69q0 -28 -9 -53t-24 -47t-34 -42t-38 -38q-18 -18 -32.5 -32t-25 -30t-16 -36.5t-5.5 -49.5v-78q0 -38 9 -69.5t28 -54t49.5 -34.5t72.5 -12q40 0 69.5 12t48 34.5t27 54t8.5 69.5v566 h124v-570q0 -60 -20.5 -109t-57 -84.5t-87.5 -55t-112 -19.5q-63 0 -114 19.5t-87.5 55t-57 84.5t-22.5 109v96q0 34 7 59t20 45t30 38t37 38q17 16 34 33t30.5 33.5t22 33t8.5 34.5q0 28 -19.5 44.5t-47.5 16.5q-19 0 -38.5 -12.5t-33.5 -32.5z" />
<glyph unicode="&#xe03;" horiz-adv-x="780" d="M6 764l68 76l90 -62l10 8q32 24 64 36t63 12q32 0 59.5 -11t47.5 -30t31 -45t11 -58q0 -36 -17 -75t-56 -77l-129 -130q-8 -8 -13 -20t-7 -23.5t-2 -20.5v-12v-70q0 -38 9 -69t28 -53t49.5 -34t72.5 -12q40 0 69.5 12t48 34t27 53t8.5 69v566h124v-570q0 -60 -20.5 -109 t-57 -84.5t-87.5 -55t-112 -19.5q-63 0 -114 19.5t-87.5 55t-57 84.5t-22.5 109v86q0 36 9 66.5t31 52.5l168 165q17 16 23.5 32t6.5 28q0 20 -12.5 33.5t-32.5 13.5q-25 -1 -63 -29l-46 -36q-12 -10 -27 -10t-28 10z" />
<glyph unicode="&#xe04;" horiz-adv-x="917" d="M114 0v524q0 74 24 133t67 99q24 24 55.5 39t65 24t68 13t67.5 4q32 0 67 -4t68.5 -13t64.5 -24t56 -39q43 -40 66.5 -99t23.5 -133v-524h-119v508q0 58 -15 100t-44.5 69t-72 40.5t-95.5 13.5q-54 0 -96.5 -13.5t-71.5 -40.5t-44 -69t-15 -100v-29q16 8 39 12.5t55 4.5 h131v-98h-115q-32 0 -53.5 -7.5t-34 -22t-17.5 -36.5t-5 -52v-280h-120z" />
<glyph unicode="&#xe05;" horiz-adv-x="936" d="M114 0v534q0 74 25 133t68 99q28 23 64 40.5t79 29.5l117 -115l119 115q42 -9 78.5 -27.5t64.5 -42.5q45 -42 68.5 -100t23.5 -132v-534h-119v518q0 65 -23 112.5t-67 73.5l-100 -90q-9 -8 -20.5 -12t-23.5 -4t-23 4t-19 12l-100 90q-43 -26 -66.5 -73t-23.5 -113v-39 q17 8 39 13q23 4 55 4h135v-98h-119q-32 0 -53.5 -7.5t-34 -22t-17.5 -36.5t-5 -52v-280h-122z" />
<glyph unicode="&#xe06;" horiz-adv-x="891" d="M16 764l68 76l90 -62l10 8q32 24 64 36t64 12t59 -11t47 -30t31.5 -45t11.5 -58q0 -36 -17.5 -75t-56.5 -77l-129 -130q-9 -8 -14 -20t-7.5 -24t-2.5 -22v-16v-6q0 -53 15 -94.5t42.5 -70.5t66.5 -44q38 -15 86 -15q104 0 157 57t53 167v510h122v-529q0 -74 -24 -131.5 t-68 -99.5q-40 -38 -96 -58q-58 -20 -132 -20q-65 0 -121.5 19t-98.5 59v-70h-122v344q0 37 10 69t32 52l166 163q17 16 23.5 31t6.5 29q0 20 -12 33.5t-33 13.5q-25 -1 -63 -29l-46 -36q-12 -10 -27 -10t-27 10z" />
<glyph unicode="&#xe07;" horiz-adv-x="666" d="M8 168l105 51q17 -60 59 -93.5t103 -33.5q40 0 69.5 12t48.5 34.5t28 54t9 69.5v467h-118v99h240v-570q0 -64 -19 -114t-54 -84t-86.5 -52t-117.5 -18q-53 0 -95.5 12t-75.5 35t-56.5 56t-39.5 75z" />
<glyph unicode="&#xe08;" horiz-adv-x="762" d="M-2 658q19 44 49.5 77t70.5 55t89 34t105 12q74 0 135 -20t106 -59t69.5 -97t24.5 -136v-524h-121v280q0 29 -4.5 51.5t-17 37t-33.5 22t-53 7.5h-117v100h119q32 0 59 -7t47 -20v31q0 112 -53 170.5t-161 58.5q-34 0 -66.5 -8.5t-60 -24.5t-49.5 -41t-34 -59z" />
<glyph unicode="&#xe09;" horiz-adv-x="891" d="M106 301v203h122v-184q0 -109 54 -167.5t156 -58.5q52 0 92 15t67.5 44t42 71t14.5 96v190q0 112 -57.5 167.5t-166.5 55.5q-34 0 -66.5 -7.5t-61 -22.5t-51 -38t-36.5 -55l-105 52q20 44 51 76t72 54t91 33t106 11q74 0 137 -19.5t109 -58t72 -96.5t26 -136v-526h-120 v74q-46 -42 -103 -62t-123 -20q-76 0 -133 20t-99 58q-43 42 -66.5 99.5t-23.5 131.5z" />
<glyph unicode="&#xe0a;" horiz-adv-x="784" d="M56 750q42 42 87 62t95 20q42 0 76 -12t58 -34t37 -53t13 -69q0 -20 -3.5 -39t-11 -36t-19.5 -33.5t-30 -33.5l-110 -110q-10 -9 -14.5 -22.5t-6 -29.5t-1.5 -36v-42q0 -39 9 -73.5t28 -59.5t49.5 -40t72.5 -15q40 0 69.5 12t48 34t27 53t8.5 69v299q0 16 -6 30t-16 26 t-21 21.5t-22 15.5q-10 6 -19 11.5t-12 13.5t1.5 19t21.5 27l235 229l82 -78l-190 -184q9 -7 21 -18.5t22.5 -27.5t18.5 -37.5t8 -47.5v-303q0 -59 -20.5 -108.5t-57 -84.5t-87.5 -55t-112 -20q-64 0 -115.5 23t-88.5 62t-57 92t-20 111v68q0 37 10 69.5t30 51.5l130 127 q38 36 38 70q0 18 -6 31t-16 21.5t-24 12.5t-30 4q-10 0 -22 -4.5t-24 -10.5t-23 -14t-21 -16z" />
<glyph unicode="&#xe0b;" horiz-adv-x="811" d="M12 766l68 74l90 -62l12 10q30 26 62 36t61 10q33 0 62 -13t51 -34t34.5 -50t12.5 -61q0 -18 -6 -38t-17 -41t-26 -41t-33 -38l-107 -106q-9 -9 -13.5 -21.5t-7 -24t-3 -21t-0.5 -13.5v-50q0 -39 9.5 -73.5t29 -59.5t49.5 -40t72 -15q40 0 69.5 12t49 34t28.5 53t9 69 v299q0 17 -7 31t-17.5 26t-23 21t-22.5 15t-19 11.5t-11.5 13.5t3 19t21.5 27l229 229l80 -76l-181 -182q8 -6 20 -18t22 -29t17 -39t7 -49v-303q0 -59 -19.5 -108.5t-55.5 -84.5t-86.5 -55t-112.5 -20q-64 0 -115.5 23t-88 62t-56 92t-19.5 111v68q0 36 10.5 68.5 t30.5 52.5l144 141q18 18 26 35t8 33q0 12 -4 22t-11 18t-17 12.5t-21 4.5q-12 0 -27 -7q-14 -8 -30 -20l-46 -36q-6 -4 -13 -7t-14 -3t-15 2q-8 4 -12 8z" />
<glyph unicode="&#xe0c;" horiz-adv-x="1394" d="M51 610q66 112 160.5 169t222.5 57q90 0 157 -22t111 -63t66 -100.5t22 -136.5v-194q0 -52 14 -93.5t39.5 -71t61 -45.5t78.5 -16q44 0 77.5 15t55.5 44t33.5 71t11.5 96v508h119v-527q0 -76 -20.5 -134.5t-58 -97t-89.5 -57.5q-52 -20 -116 -20q-62 0 -115 19t-91 57 v-68h-118v500q0 63 -16 106.5t-46.5 71.5t-75 40.5t-102.5 12.5q-31 0 -63.5 -6t-64 -19.5t-61 -35.5t-55.5 -54l60 -92v-326q0 -20 2.5 -37t10.5 -29t23 -19q16 -7 40 -7h76v-106h-93q-48 0 -81.5 14t-55 39t-31.5 62t-10 81v304z" />
<glyph unicode="&#xe0d;" horiz-adv-x="1380" d="M51 610q66 112 160.5 169t222.5 57q90 0 157 -22t111 -63t66 -101t22 -136v-142q0 -54 12 -95.5t34 -70t56 -43.5q32 -15 76 -15t77.5 15t56 43.5t34.5 70.5q11 41 11 95v456h119v-474q0 -63 -16 -119.5t-51.5 -99t-91 -67.5t-134.5 -25q-76 0 -132.5 21t-94 61t-56 97.5 t-18.5 131.5v146q0 63 -16 106.5t-46.5 70.5t-75 39.5t-102.5 12.5q-31 0 -63.5 -5.5t-64 -19t-61 -35t-55.5 -53.5l60 -94v-324q0 -20 2.5 -37t10.5 -29t23 -19q16 -7 40 -7h76v-106h-93q-48 0 -81.5 14t-55 39t-31.5 62t-10 81v304zM666 0h116q0 -32 10 -47t32 -15h442 v-98h-459q-24 0 -49.5 6t-45.5 23.5t-33 49t-13 81.5z" />
<glyph unicode="&#xe0e;" horiz-adv-x="940" d="M58 104q42 -2 63 9t31 28t11 37t1 37v287l-78 110q66 112 161 168t222 56q90 0 156.5 -21t111.5 -62t67 -100.5t24 -136.5v-676q0 -32 -10 -57t-23.5 -42t-27 -27t-19.5 -13q-22 -11 -51 -11t-56 11l-189 86q-6 3 -11 3t-13 -3q-24 -12 -50 -24.5t-53 -26.5t-53 -27 t-51 -25l-63 78l240 119q12 6 21.5 9t19 2.5t19.5 -3.5t24 -8l200 -88q8 -3 16 5t8 24v680q0 63 -15.5 106.5t-46 71.5t-75.5 40.5t-102 12.5q-32 0 -64.5 -5.5t-63 -17.5t-60 -34t-56.5 -54l61 -92v-336q0 -44 -10 -75.5t-27 -53t-39 -35t-45 -21t-45 -9.5t-40 -2z" />
<glyph unicode="&#xe0f;" horiz-adv-x="942" d="M58 104q42 -2 63 9t31 28t11 37t1 37v287l-78 110q66 112 161 168t222 56q90 0 156.5 -21t111.5 -62t67 -100.5t24 -136.5v-674q0 -23 -7 -45.5t-20 -42.5t-31 -35t-39 -22t-44 -5.5t-48 15.5l-135 76q-10 4 -16.5 4.5t-14.5 -4.5l-125 -76q-26 -16 -48 -13t-40 15 l-186 133l96 56l129 -92q4 -3 10 -4q7 0 11 4l126 80q23 16 42 14q18 0 42 -14l140 -80q6 -2 12.5 0t12 7t8.5 13t3 18v658q0 63 -15.5 106.5t-46 71.5t-75.5 40.5t-102 12.5q-32 0 -64 -5t-62.5 -17.5t-60.5 -33.5t-57 -55l61 -92v-336q0 -44 -10 -75.5t-27 -53t-39 -35 t-45 -21t-45 -9.5t-40 -2z" />
<glyph unicode="&#xe10;" horiz-adv-x="762" d="M-6 649q20 46 51 80.5t71.5 58t90 36t105.5 12.5q28 0 52.5 -2t47 -7t42.5 -13q22 -8 42 -20l168 162l84 -78l-166 -157q31 -38 48 -86.5t17 -110.5v-524h-121v280q0 29 -4.5 51.5t-17 37t-33.5 22t-53 7.5h-117v100h119q32 0 59 -7t47 -20v33q0 112 -53 169.5t-161 57.5 q-34 0 -66 -8.5t-59.5 -25.5t-49 -42t-33.5 -59zM39 -158l80 58l111 -84q10 -10 20 0l62 57q12 12 26 17.5t29 5t30 -6t27 -16.5l76 -65q3 0 7.5 2.5t8.5 7t7 11.5t3 15v90h121v-76q0 -28 -6.5 -50t-16.5 -38t-22.5 -27t-24 -17.5t-20.5 -10t-12 -4.5q-24 -6 -47 -5 q-24 2 -44 20l-73 59q-17 12 -29 0l-61 -57q-10 -9 -22.5 -14t-26.5 -5t-28 4.5t-26 14.5z" />
<glyph unicode="&#xe11;" horiz-adv-x="915" d="M20 768l72 72l88 -62l12 10q34 28 66 39t64 11q48 0 84 -23q34 -23 50 -63q12 12 24 23t23.5 21l23 20t22.5 22q58 -1 104.5 -17.5t79.5 -48.5t50.5 -79t17.5 -107v-586h-119v580q0 30 -4.5 55t-15 44t-27.5 32.5t-43 19.5l-326 -319q-8 -8 -13 -20.5t-7 -24.5t-2 -21.5 v-13.5v-332h-123v346q0 38 10.5 67t30.5 50l168 163q16 14 22 31t6 31q0 18 -11 32.5t-31 14.5q-12 0 -29 -6.5t-35 -22.5l-47 -36q-11 -9 -26 -9.5t-27 9.5z" />
<glyph unicode="&#xe12;" horiz-adv-x="1386" d="M92 223v311q0 74 24 133t68 99q28 24 64 41t78 27l110 -113l111 113q42 -8 78.5 -26t64.5 -42q45 -42 68.5 -100t23.5 -132v-214q0 -52 14 -93.5t39.5 -71t61 -45.5t78.5 -16q44 0 77 15t55.5 44t34 71t11.5 96v508h119v-527q0 -76 -21 -134.5t-58 -97t-90 -58 t-116 -19.5q-62 0 -114.5 19t-90.5 57v-68h-118v518q0 66 -22 115t-66 75l-92 -92q-8 -8 -20.5 -12t-25 -4t-24.5 4t-21 12l-92 92q-44 -26 -66 -74t-22 -116v-292q0 -30 5.5 -52.5t17.5 -37.5t33 -22.5t53 -7.5h78v-106h-93q-54 0 -94 16t-67 45t-40.5 70t-13.5 92z" />
<glyph unicode="&#xe13;" horiz-adv-x="1394" d="M51 612q66 112 160.5 168t222.5 56q90 0 157 -21t111 -62t66 -100.5t22 -136.5v-196q0 -53 12 -95.5t34 -71.5t56 -44q32 -15 76 -15q43 0 78.5 16t61 45.5t39.5 71t14 93.5v508h119v-828h-119v68q-18 -16 -42 -30t-51 -24t-55.5 -16t-56.5 -6q-64 0 -116 19.5t-90 58 t-58 96.5t-20 135v201q0 63 -16 106.5t-46.5 71.5t-75 40.5t-102.5 12.5q-31 0 -63.5 -6t-64 -19.5t-61 -35.5t-55.5 -54l60 -92v-328q0 -20 2.5 -37t10.5 -29t23 -19q16 -7 40 -7h76v-106h-93q-48 0 -81.5 14t-55 39t-31.5 62t-10 81v306z" />
<glyph unicode="&#xe14;" horiz-adv-x="919" d="M114 223v301q0 74 24 133t67 99q24 24 55.5 39t65 24t68 13t67.5 4q32 0 67 -4t68.5 -13t64.5 -24t56 -39q43 -40 66.5 -99t23.5 -133v-524h-119v508q0 58 -15 100t-44.5 69t-72 40.5t-95.5 13.5q-54 0 -96.5 -13.5t-71.5 -40.5t-44 -69t-15 -100v-282q0 -30 5 -52 t18 -37t34 -23t53 -8h78v-106h-92q-54 0 -94 16t-67 45t-41 70t-14 92z" />
<glyph unicode="&#xe15;" horiz-adv-x="919" d="M114 223v311q0 74 25 133t68 99q28 24 63.5 41t77.5 29l111 -115l111 115q42 -9 78 -28q36 -18 64 -42q45 -42 69 -100t24 -132v-534h-119v518q0 66 -22 114t-66 74l-92 -90q-9 -9 -20.5 -13.5t-24.5 -4t-25 5.5q-10 4 -20 12l-92 90q-44 -26 -66 -73t-22 -115v-292 q0 -30 5 -52t17 -37t33 -23t53 -8h78v-106h-92q-54 0 -94 16t-67 45t-41 70t-14 92z" />
<glyph unicode="&#xe16;" horiz-adv-x="905" d="M51 610q66 112 160.5 169t222.5 57q90 0 157 -22t111 -63t66 -100.5t22 -136.5v-514h-118v500q0 63 -16 106.5t-46.5 71.5t-75 40.5t-102.5 12.5q-31 0 -63.5 -6t-64 -19.5t-61 -35.5t-55.5 -54l60 -92v-326q0 -20 2.5 -37t10.5 -29t23 -19q16 -7 40 -7h76v-106h-93 q-48 0 -81.5 14t-55 39t-31.5 62t-10 81v304z" />
<glyph unicode="&#xe17;" horiz-adv-x="880" d="M114 0v828h122v-111q21 28 46 50t54.5 37.5t62.5 24.5t70 9q66 0 120.5 -23t93.5 -63t61 -97t22 -125v-530h-121v510q0 56 -14.5 97t-41 69t-64 41.5t-83.5 13.5q-26 0 -51 -9t-48 -25t-43 -38t-34 -48.5t-22 -56.5t-8 -60v-494h-122z" />
<glyph unicode="&#xe18;" horiz-adv-x="811" d="M76 618q0 49 23 89.5t65 68.5t99 44t124 16q88 0 169.5 -25t145.5 -73l-80 -78q-54 36 -111 54.5t-124 18.5q-44 0 -79.5 -7.5t-61.5 -21.5t-40 -36t-14 -50q0 -46 38 -70t118 -32l136 -12q54 -4 100 -19.5t80 -44t54 -72.5t20 -106q0 -57 -24.5 -106.5t-70 -86.5 t-109.5 -58t-145 -21q-33 0 -67 5t-66 16t-60 28t-48.5 40t-33.5 51q-12 28 -12 64v181h119v-179q0 -22 14.5 -41t37.5 -32t53 -21t61 -8q57 0 100 12.5t72.5 35t44 53t14.5 67.5q0 28 -8 51.5t-26 41.5t-44 29q-27 12 -63 14l-139 14q-62 6 -111 22t-82.5 42t-51 62 t-17.5 80z" />
<glyph unicode="&#xe19;" horiz-adv-x="880" d="M114 297v531h122v-510q0 -56 14 -97t41 -69t64 -42t83 -14q26 0 52 9t48.5 25t42 38t34 49t22.5 56t8 61v494h121v-828h-121v110q-20 -28 -45.5 -50t-55 -37.5t-63 -24t-69.5 -8.5q-66 0 -121 22t-94 63t-61 97t-22 125z" />
<glyph unicode="&#xe1a;" horiz-adv-x="880" d="M114 301v527h122v-508q0 -109 51 -167.5t153 -58.5t153.5 58t51.5 168v508h121v-527q0 -74 -24 -131.5t-67 -97.5t-103 -60t-132 -20t-132 20t-103 60t-67 97t-24 132z" />
<glyph unicode="&#xe1b;" horiz-adv-x="880" d="M114 301v527h122v-508q0 -109 51 -167.5t153 -58.5t153.5 58t51.5 168v904h121v-923q0 -74 -24 -131.5t-67 -97.5t-103 -60t-132 -20t-132 20t-103 60t-67 97t-24 132z" />
<glyph unicode="&#xe1c;" horiz-adv-x="919" d="M114 293v311q0 51 14 92.5t41 70.5t67 45t94 16h92v-107h-78q-32 0 -53 -7.5t-33 -22.5t-17 -37.5t-5 -51.5v-293q0 -68 22 -114t66 -72l92 90q10 9 21 14t24 5t24.5 -5t20.5 -14l92 -90q44 26 66 72.5t22 113.5v519h119v-535q0 -73 -23 -131q-24 -58 -70 -100 q-28 -25 -64 -43t-78 -27l-111 114q-26 -28 -56 -57t-55 -57q-42 10 -78 27t-63 43q-44 40 -68.5 98t-24.5 133z" />
<glyph unicode="&#xe1d;" horiz-adv-x="919" d="M114 293v311q0 51 14 92.5t41 70.5t67 45t94 16h92v-107h-78q-32 0 -53 -7.5t-33 -22.5t-17 -37.5t-5 -51.5v-293q0 -68 22 -114t66 -72l92 90q10 9 21 14t24 5t24.5 -5t20.5 -14l92 -90q44 26 66 72.5t22 113.5v915h119v-931q0 -73 -23 -131q-24 -58 -70 -100 q-28 -25 -64 -43t-78 -27l-111 114q-26 -28 -56 -57t-55 -57q-42 10 -78 27t-63 43q-44 40 -68.5 98t-24.5 133z" />
<glyph unicode="&#xe1e;" horiz-adv-x="1106" d="M64 828h122l92 -628l226 628h96l228 -628l94 628h120l-139 -828h-109l-241 641l-241 -641h-112z" />
<glyph unicode="&#xe1f;" horiz-adv-x="1106" d="M64 828h122l92 -628l228 628h94l228 -628l157 1024h121l-203 -1224h-109l-241 641l-241 -641h-112z" />
<glyph unicode="&#xe20;" horiz-adv-x="942" d="M58 106q42 -2 63 9t31 28t11 37t1 37v283l-78 110q66 112 161 169t222 57q90 0 156.5 -22t111.5 -63t67 -100.5t24 -136.5v-514h-122v500q0 63 -15.5 106.5t-46 71.5t-75.5 40.5t-102 12.5q-32 0 -64.5 -5.5t-63 -17.5t-60 -34t-56.5 -54l61 -92v-332q0 -44 -10 -75.5 t-27 -53t-39 -35t-45 -21t-45 -9.5t-40 -2z" />
<glyph unicode="&#xe21;" horiz-adv-x="880" d="M114 0v828h122v-494q0 -32 8.5 -61t23.5 -56t35.5 -49t44.5 -38t50 -25t52 -9q46 0 82.5 14t61.5 42t38 69t13 97v510h121v-531q0 -68 -22 -124.5t-61 -97.5t-93.5 -63t-120.5 -22q-37 0 -70 8.5t-62.5 24t-54.5 37.5q-26 22 -46 50v-110h-122z" />
<glyph unicode="&#xe22;" horiz-adv-x="895" d="M82 252q0 29 6 56t20 51t34 44q20 19 50 35q-28 13 -48 30.5t-33.5 38.5t-20 45.5t-8.5 51.5q0 46 14 87t41 71t67 48t93 18h127v-107h-110q-32 0 -54 -7.5t-35 -22.5t-19 -37t-6 -52q0 -27 13 -47.5t41 -35.5t70 -22t100 -7v-99q-58 0 -100 -10t-70 -29t-41 -46.5 t-13 -61.5q0 -32 17 -59t47 -47.5t72 -32t94 -11.5q68 0 112 18t69.5 51t36 78t10.5 99v488h122v-488q0 -82 -18 -147t-60 -111t-109 -70t-163 -24q-76 0 -131 14t-94 38t-63 53t-37 58.5t-18 56t-5 44.5z" />
<glyph unicode="&#xe23;" horiz-adv-x="719" d="M35 116l77 80q28 -26 53 -45t52 -32t58 -19t73 -6q54 0 91.5 11.5t60 31t32.5 45.5t10 56q0 33 -11.5 55.5t-31.5 38.5t-46.5 25t-54.5 15l-68 15q-60 13 -107.5 31t-80 43t-49.5 60t-17 83t17 90t51.5 73.5t86 50t119.5 18.5q43 0 79.5 -7t70.5 -19t65 -30t63 -42 l-81 -78q-26 18 -48.5 31t-45 22.5t-47 14.5t-56.5 5q-42 0 -71.5 -9.5t-49 -27t-28.5 -41t-9 -51.5q0 -24 10 -41.5t28.5 -31t47 -22.5t66.5 -17l80 -17q50 -10 93 -27.5t76 -45.5t52 -68t19 -96q0 -49 -19.5 -94.5t-58 -79.5t-97.5 -54t-137 -20q-56 0 -99.5 8t-80 23 t-69.5 39t-68 56z" />
<glyph unicode="&#xe24;" horiz-adv-x="905" d="M51 610q66 114 160.5 170t222.5 56q90 0 157 -22t111 -63t66 -100.5t22 -136.5v-823h-118v811q0 62 -16 105.5t-46.5 71t-75 40t-102.5 12.5q-31 0 -63.5 -5.5t-64 -19.5t-61 -36t-55.5 -54l60 -92v-326q0 -20 2.5 -37t10.5 -29t23 -19q16 -7 40 -7h76v-106h-93 q-48 0 -81.5 14t-55 39t-31.5 62t-10 81v306z" />
<glyph unicode="&#xe25;" horiz-adv-x="866" d="M76 236q0 58 21 106t60 83t96 54t129 19h249v53q0 44 -12 78t-38 56.5t-67.5 34t-99.5 11.5q-40 0 -73 -5.5t-61 -18t-53 -32t-53 -47.5l-84 70q33 33 66 58.5t71 43.5t83.5 27t103.5 9q172 0 255 -71.5t83 -205.5v-559h-121v396h-241q-49 0 -85.5 -11t-61 -31.5 t-36.5 -50t-12 -65.5q0 -70 52.5 -107t164.5 -37v-104q-53 0 -94 4t-73.5 14t-58.5 24q-24 16 -46 36q-29 31 -46.5 75.5t-17.5 92.5z" />
<glyph unicode="&#xe26;" horiz-adv-x="942" d="M58 106q42 -2 63 9t31 28t11 37t1 37v285l-78 108q66 114 161 170t222 56q90 0 156.5 -22t111.5 -63t67 -100.5t24 -136.5v-821h-122v809q0 62 -15.5 105.5t-46 71t-75.5 40t-102 12.5q-31 0 -62.5 -5t-62.5 -17.5t-61.5 -33.5t-57.5 -55l61 -92v-332q0 -44 -10 -75.5 t-27 -53t-39 -35t-45 -21t-45 -9.5t-40 -2z" />
<glyph unicode="&#xe27;" horiz-adv-x="712" d="M24 660q22 42 53 74t69 55t82 35t90 12q74 0 132.5 -24t99 -68t62 -105t21.5 -135v-178q0 -68 -18.5 -128.5t-56.5 -106t-98 -72.5t-142 -27q-36 0 -72.5 7.5t-70 22.5t-63.5 37.5t-52 50.5l84 70q16 -19 35.5 -34.5t42.5 -25.5t47.5 -16t48.5 -6q50 0 87 18t61 49t36 73 t12 90v176q0 46 -11 87t-34.5 71.5t-61 48.5t-89.5 18q-30 0 -59 -8.5t-54 -24t-45.5 -38.5t-34.5 -52z" />
<glyph unicode="&#xe28;" horiz-adv-x="927" d="M114 0v526q0 74 25 132t70 98t109 61t141 21q57 0 106 -10t91 -34l159 156l84 -80l-157 -149q28 -39 44 -87q17 -50 17 -108v-526h-121v510q0 112 -57 167.5t-166 55.5q-54 0 -95.5 -16.5t-70 -47.5t-43 -75t-14.5 -100v-10q16 8 40 13t54 5h162v-102h-146 q-32 0 -53.5 -7.5t-34 -22t-17.5 -36.5t-5 -52v-282h-122z" />
<glyph unicode="&#xe29;" horiz-adv-x="921" d="M114 301v527h122v-508q0 -110 54 -168t158 -58t159 58t55 168v78h-130q-24 0 -49 7t-45.5 26t-33.5 51t-13 83h115q0 -69 43 -69h113v332h120v-332h107v-98h-107v-97q0 -70 -25 -127.5t-70 -98.5t-106 -63t-133 -22q-70 0 -130 21t-104 60.5t-70 96.5q-28 58 -30 133z " />
<glyph unicode="&#xe2a;" horiz-adv-x="897" d="M82 236q0 58 21 106t60 82t96 53t129 19h250v55q0 44 -12 78t-38.5 56.5t-68 34t-99.5 11.5q-41 0 -73.5 -5.5t-60.5 -18t-53 -32t-53 -47.5l-84 70q33 33 66 58.5t71 43.5t83.5 27t103.5 9q120 0 197 -38l149 150l84 -80l-143 -139q28 -34 39.5 -75.5t11.5 -94.5v-559 h-120v398h-242q-49 0 -85.5 -11.5t-61 -32t-36.5 -50.5t-12 -66q0 -70 52.5 -107t164.5 -37v-104q-53 0 -94.5 5t-74 14t-58 24t-45.5 35q-16 14 -27.5 33t-19.5 41t-12.5 46t-4.5 48z" />
<glyph unicode="&#xe2b;" horiz-adv-x="897" d="M114 0v828h122v-376l493 392l72 -86l-164 -125q36 -20 63.5 -48.5t45.5 -64.5t27 -77t9 -85v-358h-118v344q0 82 -32 135.5t-94 73.5l-302 -241v-312h-122z" />
<glyph unicode="&#xe2c;" horiz-adv-x="1116" d="M64 828h122l86 -560l6 -65l15 65l205 560h110l203 -560l17 -63l6 63l57 363q4 44 -23 67.5t-92 24.5v105h86q24 0 42.5 5.5t32 16t21.5 25.5t13 33l23 75h124l-32 -109q-8 -26 -19 -45t-25 -35t-31 -28t-36 -20q20 -23 29.5 -54.5t5.5 -63.5l-107 -628h-109l-235 637 l-6 27l-6 -27l-235 -637h-112z" />
<glyph unicode="&#xe2d;" horiz-adv-x="848" d="M84 424v72h318v-98h-202q0 -18 0.5 -38t2 -39t4.5 -37t8 -34q9 -30 27 -57t45 -49t61.5 -35t77.5 -13q46 0 81 12t60 33t42 51t27 65t14 75t4 82q0 38 -4.5 75.5t-15 73t-29 66t-46.5 53t-67 36.5q-38 13 -90 13q-33 0 -62.5 -6t-56.5 -18.5t-53 -31.5t-54 -47l-92 72 q36 34 70.5 60t72.5 43t81.5 26t97.5 9q89 0 157.5 -27t115.5 -81t71 -133t24 -183q0 -99 -24 -177.5t-69 -133.5t-109 -84t-146 -29q-61 0 -112.5 16t-92.5 47t-71 75t-48 100q-6 19 -9.5 51t-5.5 69.5t-3 75.5z" />
<glyph unicode="&#xe2e;" horiz-adv-x="848" d="M84 496h318v-98h-202q0 -18 0.5 -38t2 -39t4.5 -37t8 -34q9 -30 27 -57t45 -49t61.5 -35t77.5 -13q46 0 81 12t60 33t42 51t27 65t14 75t4 82q0 38 -4.5 75.5t-15 73t-29 66t-46.5 53t-67 36.5q-38 13 -90 13q-34 0 -64 -5.5t-56.5 -18t-52 -32t-53.5 -47.5l-92 74 q36 33 70.5 58.5t72.5 42.5t81.5 26t97.5 9q51 0 97 -10t85 -30l164 160l84 -80l-158 -149q48 -54 72 -132q24 -77 24 -183q0 -99 -24 -177.5t-69 -133.5t-109 -84t-146 -29q-62 0 -114 16t-93 46.5t-70.5 75t-46.5 100.5q-6 18 -9.5 49.5t-5.5 69t-2.5 76.5t-0.5 73z" />
<glyph unicode="&#xe2f;" horiz-adv-x="864" d="M96 594q0 50 14 93t40.5 74t67 49t94.5 18h92v-107h-78q-32 0 -53 -9.5t-34 -26t-18.5 -40t-5.5 -51.5q0 -90 54.5 -138t158.5 -48q106 0 159.5 54t53.5 160v206h123v-828h-123v375q-19 -18 -44 -31.5t-53 -22.5t-58 -13.5t-58 -4.5q-75 0 -136.5 19.5t-104.5 57.5 t-67 92t-24 122z" />
<glyph unicode="&#xe30;" horiz-adv-x="489" d="M60 303h114q0 -37 9 -54t32 -17h193v-99h-210q-24 0 -48 7.5t-44.5 26.5t-33 52t-12.5 84zM60 702h114q0 -37 9 -54t32 -17h193v-99h-210q-24 0 -48 7.5t-44.5 26.5t-33.5 52q-12 32 -12 84z" />
<glyph unicode="&#xe31;" d="M-490 1164h115q0 -36 9 -54t32 -18h373v-98h-389q-24 0 -49 7t-45 26t-33 52t-13 85z" />
<glyph unicode="&#xe32;" horiz-adv-x="637" d="M2 706q38 62 103 96t151 34q66 0 116 -18t83 -53t50 -85t17 -115v-565h-118v561q0 38 -8 69.5t-25.5 53.5t-46 34.5t-68.5 12.5q-52 0 -93 -19.5t-67 -59.5z" />
<glyph unicode="&#xe33;" horiz-adv-x="637" d="M-330 1122q0 30 12 58t32.5 48t47.5 32t58 12q30 0 56.5 -12t47 -32t32.5 -48q11 -28 11 -58t-11.5 -56.5t-32 -47t-47 -32t-56.5 -11.5q-31 0 -58 11.5t-47.5 32t-32.5 47t-12 56.5zM-238 1122q0 -25 16.5 -40t41.5 -15q24 0 40.5 15.5t16.5 39.5t-16.5 41t-40.5 17 q-25 0 -41.5 -17t-16.5 -41zM2 706q38 62 103 96t151 34q66 0 116 -18t83 -53t50 -85t17 -115v-565h-118v561q0 38 -8 69.5t-25.5 53.5t-46 34.5t-68.5 12.5q-52 0 -93 -19.5t-67 -59.5z" />
<glyph unicode="&#xe34;" d="M-762 994v98h648v-98h-648z" />
<glyph unicode="&#xe35;" d="M-762 994v98h530v132h118v-230h-648z" />
<glyph unicode="&#xe36;" d="M-762 994v98h396q-3 8 -6 20q-3 10 -3 18q0 29 10.5 54.5t29.5 44.5t44 30t53 11q29 0 54.5 -11t44.5 -30t30 -44t11 -55q0 -28 -11 -53t-30 -43.5t-44 -29t-55 -10.5h-524zM-289 1130q0 -10 4.5 -19.5t11.5 -16t16 -10.5t19 -4q12 0 22 4t17.5 10.5t12 16t4.5 19.5 q0 12 -4.5 22t-12 17t-17.5 11t-22 4q-10 0 -19 -4t-16 -11t-11.5 -17t-4.5 -22z" />
<glyph unicode="&#xe37;" d="M-762 994v98h375v132h101v-132h71v132h101v-230h-648z" />
<glyph unicode="&#xe38;" d="M-318 -119h52q42 0 71 -6t47 -23.5t26 -48.5t8 -81v-128h-118v126q0 19 -2 30.5t-7 17.5t-14 7.5t-21 1.5h-42v104z" />
<glyph unicode="&#xe39;" d="M-520 -119h64q33 0 54.5 -6.5t35 -20.5t19 -37t5.5 -55v-10q0 -9 3 -19.5t9 -18.5t17 -13.5t29 -5.5q17 0 27.5 5.5t16.5 13.5t8 18.5t2 19.5v129h116v-129q0 -36 -13 -65t-36 -49t-54 -32t-67 -12q-39 0 -70.5 12t-54 32t-34 49t-11.5 65q0 16 -6 21.5t-19 5.5h-41v102z " />
<glyph unicode="&#xe3a;" d="M-262 -209q0 17 6.5 32t17.5 26t26 17.5t32 6.5t31.5 -6.5t25.5 -17.5t18 -26t7 -32t-7 -32t-18 -26t-25.5 -17.5t-31.5 -6.5t-32 6.5t-26 17.5t-17.5 26t-6.5 32z" />
<glyph unicode="&#xe3e;" />
<glyph unicode="&#xe3f;" horiz-adv-x="977" d="M152 0v1036h284v107h117v-107q66 -2 121.5 -22t96 -56t63 -86t22.5 -112q0 -40 -11 -76t-31 -65t-48 -51t-60 -36q37 -14 67.5 -36.5t52 -54t33 -70.5t11.5 -85q0 -70 -23 -123t-65 -89.5t-100 -55t-129 -18.5v-112h-117v112h-284zM272 106h164v367h-164v-367zM272 582 h164v348h-164v-348zM553 106q46 2 82 16t61.5 38t39.5 57.5t14 73.5q0 42 -14 74.5t-39.5 55.5t-62 36t-81.5 16v-367zM553 582q38 3 70.5 14.5t56.5 33.5t37.5 53.5t13.5 74.5q0 42 -13.5 72.5t-37.5 51.5t-56 32q-32 12 -71 14v-346z" />
<glyph unicode="&#xe40;" horiz-adv-x="417" d="M114 196v632h122v-630q0 -20 2 -37t10 -29t22 -19t39 -7h76v-106h-92q-48 0 -81.5 14t-55.5 39t-32 62t-10 81z" />
<glyph unicode="&#xe41;" horiz-adv-x="808" d="M114 196v632h122v-630q0 -20 2 -37t10 -29t22 -19t39 -7h76v-106h-92q-48 0 -81.5 14t-55.5 39t-32 62t-10 81zM506 196v632h120v-630q0 -20 2.5 -37t10 -29t22.5 -19t39 -7h76v-106h-92q-48 0 -81.5 14t-55 39t-31.5 62t-10 81z" />
<glyph unicode="&#xe42;" horiz-adv-x="454" d="M-4 1130l20 94h506v-96h-303q16 -18 26 -39t16.5 -42t8.5 -41t2 -38v-763q0 -21 2 -39t9 -31t22 -21t41 -8h76v-106h-92q-50 0 -84 15t-55 42t-30 64t-9 82v768q0 35 -10 64.5t-29 50.5t-48.5 32.5t-68.5 11.5z" />
<glyph unicode="&#xe43;" horiz-adv-x="452" d="M-6 1040q7 48 30.5 84.5t55.5 61t70 37t76 12.5q55 0 96.5 -13.5t69.5 -38t42 -59t14 -78.5q0 -19 -5 -36.5t-14.5 -36.5t-24 -38t-34.5 -42q-18 -24 -38 -45.5t-39 -44.5q-8 -8 -12.5 -16.5t-6.5 -17.5t-2 -18.5v-19.5v-526q0 -21 2 -39t9 -31t22 -21t41 -8h76v-106h-92 q-50 0 -84 15t-55 42t-30 64t-9 82v524q0 18 1 33.5t6 31.5t16.5 35t31.5 41q20 23 41.5 47.5t42.5 46.5q16 18 24.5 32t12.5 24t5 17t1 11q0 24 -9 40t-24.5 25t-35 13t-39.5 4q-16 0 -35 -4t-35.5 -16t-30 -33t-21.5 -53z" />
<glyph unicode="&#xe44;" horiz-adv-x="467" d="M-51 1128v96h473l20 -94q-39 0 -68 -11.5t-48.5 -32.5t-29.5 -50.5t-10 -64.5v-764q0 -21 2 -39t9.5 -31t22 -21t40.5 -8h76v-108h-90q-50 0 -84 15t-55.5 42.5t-31 65t-9.5 82.5v763q0 17 2.5 37.5t8.5 41.5t16.5 42t25.5 39h-270z" />
<glyph unicode="&#xe45;" horiz-adv-x="637" d="M2 706q38 62 103 96t151 34q66 0 116 -18t83 -53t50 -85t17 -115v-874h-118v870q0 38 -8 69.5t-25.5 53.5t-46 34.5t-68.5 12.5q-52 0 -93 -19.5t-67 -59.5z" />
<glyph unicode="&#xe46;" horiz-adv-x="858" d="M80 608q0 48 9 84.5t30 64t56 46.5t85 33l158 -128l154 128q35 -10 66.5 -26t54.5 -39t37 -54t14 -72v-954h-122v952q0 24 -7 42.5t-29 31.5l-134 -109q-14 -11 -34 -9.5t-35 11.5l-137 107q-10 -3 -18.5 -9t-15.5 -17.5t-11.5 -31t-4.5 -51.5q0 -20 1 -39.5t8 -36 t22 -26.5t41 -10h25v-94h-39q-38 0 -70 9.5t-55 33.5t-36 63.5t-13 99.5z" />
<glyph unicode="&#xe47;" d="M-772 1172q0 32 12.5 63.5t36 57t57.5 41.5t76 18h461v-96h-451q-21 0 -36.5 -9t-26.5 -22t-17 -27t-6 -26q0 -25 11 -47.5t35 -34.5l120 71q6 4 14.5 6t17.5 2t17.5 -2t14.5 -6l124 -73q10 6 17.5 14t11 21t3.5 30t-4 39h108q9 -40 1.5 -76t-27.5 -64t-52 -47t-70 -26 l-143 88q-34 -22 -71.5 -45.5t-69.5 -44.5q-36 10 -66 26.5t-52 40.5t-34 56t-12 72z" />
<glyph unicode="&#xe48;" d="M-232 1317v183h118v-183h-118z" />
<glyph unicode="&#xe49;" d="M-385 1317v94q15 0 28 2q11 1 21 2t14 2q8 2 16.5 5.5t15 9.5t11.5 16t5 26q0 20 -20 31t-58 9v104q43 0 77.5 -7.5t58.5 -24t37 -41.5t13 -60q0 -17 -4 -35t-14 -33h240v-100h-441z" />
<glyph unicode="&#xe4a;" d="M-574 1458q0 34 8.5 59t21.5 43t29 31q15 13 31 21q11 4 22.5 8t23.5 5t24 -3t23 -14l57 -56l48 48q12 13 24 18t25 5.5t23 -2.5t18 -7q17 -8 33.5 -22t30.5 -33.5t23 -45t9 -55.5v-49h132v-92h-232v141q0 16 -3 28t-7.5 20t-10 13t-11.5 7l-61 -64q-8 -7 -17.5 -10.5 t-20.5 -4.5t-21 3t-18 12l-66 64q-18 -6 -28.5 -20t-10.5 -44q0 -11 6 -21.5t16.5 -18.5t26.5 -13.5t35 -5.5v-93h-25q-34 0 -63 12t-50 32t-33 47t-12 57z" />
<glyph unicode="&#xe4b;" d="M-346 1424v100h120v110h110v-110h120v-100h-120v-107h-110v107h-120z" />
<glyph unicode="&#xe4c;" d="M-232 1216q0 36 6 63t16.5 46t24 31t29 19t32 9t32.5 2h154v-98h-144q-24 0 -32.5 -18t-8.5 -54h-109z" />
<glyph unicode="&#xe4d;" d="M-330 1122q0 30 12 58t32.5 48t47.5 32t58 12q30 0 56.5 -12t47 -32t32.5 -48q11 -28 11 -58t-11.5 -56.5t-32 -47t-47 -32t-56.5 -11.5q-31 0 -58 11.5t-47.5 32t-32.5 47t-12 56.5zM-238 1122q0 -25 16.5 -40t41.5 -15q24 0 40.5 15.5t16.5 39.5t-16.5 41t-40.5 17 q-25 0 -41.5 -17t-16.5 -41z" />
<glyph unicode="&#xe4e;" d="M-230 1002q0 44 7 73t18 47.5t27 27t34 11.5q4 27 18 42t33 23t40 9.5t39 1.5h86v-94h-76q-13 0 -20.5 -2.5t-11.5 -10t-4.5 -21t-0.5 -34.5h-63q-4 0 -7 -5.5t-5 -15.5t-2 -24q-1 -12 -1 -28h-111z" />
<glyph unicode="&#xe4f;" horiz-adv-x="1054" d="M96 410q0 60 15.5 115t43.5 103t67.5 87t86.5 67.5t102 44t113 15.5q60 0 115.5 -15.5t103.5 -44t87.5 -67.5t67.5 -87t43 -103t15 -115q0 -59 -15 -113.5t-43 -102.5t-67.5 -87t-87.5 -67t-103.5 -43t-115.5 -15q-59 0 -113.5 15t-101.5 43t-86.5 67t-67.5 87 t-43.5 102.5t-15.5 113.5zM207 410q0 -44 11.5 -84.5t32.5 -76t50 -64.5t64 -49.5t75 -31.5q40 -12 84 -12t85.5 11.5t77 32t65.5 49.5t50.5 64.5t32 76t11.5 84.5t-11.5 85t-32 77t-50.5 65t-65.5 50t-76.5 33q-42 11 -86 11t-84 -11.5t-75 -32.5t-64 -50t-50 -65 t-32.5 -77t-11.5 -85zM289 410q0 49 18.5 92t50.5 75.5t75 51t91 18.5q49 0 92.5 -18.5t75.5 -51t51 -76t19 -91.5t-19 -91t-51 -75t-75 -51t-93 -19q-48 0 -91 19t-75 51t-50.5 75t-18.5 91zM400 410q0 -26 10 -48.5t27 -40t39 -27.5t48 -10t49.5 10t41 27.5t27.5 40 t10 48.5t-10 49t-27.5 40t-41 27t-49.5 10t-48 -10t-39 -27t-27 -40t-10 -49z" />
<glyph unicode="&#xe50;" horiz-adv-x="954" d="M76 364q0 78 27 146t78 119t125.5 81t170.5 30t170.5 -30t126 -81t78 -119t26.5 -146q0 -52 -12 -100t-35 -90t-57 -76t-79 -59t-99.5 -38t-118.5 -13t-118.5 13t-99.5 38t-79 59t-57 76t-35 90t-12 100zM196 364q0 -58 20.5 -108t57 -87t88.5 -59t115 -22t115 22t89 59 t57 87t20 108q0 56 -20 105t-57 86t-89 58t-115 22q-63 -1 -115 -22t-88.5 -58t-57 -86t-20.5 -105z" />
<glyph unicode="&#xe51;" horiz-adv-x="954" d="M68 358q0 56 14 106t39.5 92t62 75t82.5 56t99 35.5t112 12.5q93 0 168 -29.5t128 -83.5t81 -130t28 -168q0 -87 -23.5 -157.5t-66 -126.5t-102.5 -100q-60 -46 -131 -80l-59 84q59 32 107.5 69.5t83.5 84t54 102.5t19 126t-22 126.5t-61 97t-91.5 62.5t-112.5 23 q-56 -1 -107.5 -21t-91.5 -56.5t-64 -87t-24 -112.5q0 -118 58 -176t170 -59l4 -105q-97 0 -164.5 26t-109.5 72t-61 108t-19 134z" />
<glyph unicode="&#xe52;" horiz-adv-x="1034" d="M80 318v628h120v-626q0 -41 14 -74t39 -58t58 -43t70.5 -29.5t78 -17.5t80.5 -6q60 0 116 13t98.5 40t68 70t25.5 105v106q0 33 -6 62.5t-17.5 54.5t-29 43t-41.5 26q-24 -22 -51 -46t-51 -44q-10 -8 -22 -12.5t-24 -4t-23 4.5t-20 14l-77 88q-31 -12 -50 -42 q-18 -30 -28 -72l-115 36q10 43 31 77.5t49 60t63 43.5q35 19 74 29l96 -116l121 116q62 -16 107.5 -46t74.5 -70t43 -88t14 -100v-120q0 -86 -31.5 -148t-88 -102t-134.5 -59t-172 -19q-62 0 -119.5 8t-108.5 25t-93.5 43t-73.5 62t-48 83t-17 105z" />
<glyph unicode="&#xe53;" horiz-adv-x="1018" d="M68 364q0 66 19 124.5t52 107t79 86.5t98 62l192 -150q46 37 96 74.5t96 75.5q52 -24 98 -61t80 -85.5t53 -107t19 -124.5q0 -62 -12 -116t-33 -101t-47 -88t-55 -73l-101 53q21 27 43.5 60t41.5 73t31 88q12 46 12 102q0 40 -9 77t-25 69t-39 57t-51 41l-157 -122 q-22 -17 -42 -16.5t-40 16.5l-155 122q-23 -16 -45.5 -40.5t-39.5 -56.5t-28 -69.5t-11 -77.5q0 -56 13.5 -105t40 -86t66.5 -59q42 -22 96 -22v-100q-62 2 -111 18t-86.5 43t-64 63t-43 76.5t-23.5 84.5q-8 43 -8 87z" />
<glyph unicode="&#xe54;" horiz-adv-x="1065" d="M68 364q0 78 23 145t70 116t117 76.5t162 27.5h371l157 153l80 -77l-178 -177h-430q-60 -1 -106 -20.5t-78.5 -54.5t-50 -83t-17.5 -106q0 -57 17.5 -105t50 -83.5t78.5 -55.5t106 -20h134q-26 30 -44 72t-18 88q0 59 17 101.5t51 70.5t83 41t113 13h39v-101h-31 q-34 0 -62.5 -5.5t-48.5 -19.5t-31 -38t-11 -60q0 -80 49 -120t141 -42h99v-100h-480q-93 0 -162.5 27.5t-116.5 76t-70 115.5t-23 145z" />
<glyph unicode="&#xe55;" horiz-adv-x="1065" d="M68 366q0 78 23 145t70 116t117 76.5t162 27.5h48q-4 10 -6.5 20.5t-2.5 22.5q0 29 12 55.5t32.5 45.5t47.5 31t57 12t57 -12t47 -31t32 -45.5t12 -55.5q0 -12 -2.5 -23t-5.5 -20h43l162 153l79 -77l-186 -176h-426q-60 -1 -106 -21.5t-78.5 -56t-50 -83.5t-17.5 -104 q0 -57 17.5 -105.5t50 -84t78.5 -56.5q46 -20 106 -20h130q-26 30 -44 72t-18 90q0 59 17 101.5t51 69.5t83 40t113 13h39v-101h-31q-34 0 -62.5 -5.5t-49 -19.5t-31.5 -37t-11 -59q0 -82 49.5 -122t141.5 -42h103v-100h-480q-93 0 -162.5 27.5t-116.5 76.5t-70 116.5 t-23 145.5zM572 774q0 -24 16 -38.5t40 -14.5q25 0 41.5 14.5t16.5 38.5t-16 40t-42 16q-12 0 -22 -4.5t-18 -12t-12 -17.5t-4 -22z" />
<glyph unicode="&#xe56;" horiz-adv-x="1034" d="M22 807l84 77l197 -198q22 9 49.5 19t60 18t68 13.5t72.5 5.5q104 0 181 -30t128.5 -81t76.5 -120t25 -147q0 -79 -25.5 -146.5t-77 -117.5t-128.5 -78t-180 -28q-84 0 -151.5 20t-116 54.5t-76 82t-33.5 101.5q-4 34 1 60.5t15.5 48t25 37.5t29.5 28t30 21t26 14l59 -93 q-12 -7 -24 -14.5t-21 -20t-15 -30.5t-3 -45q3 -38 27.5 -67t61 -49t80.5 -30t85 -10q70 0 124.5 20t91.5 55t56 83t19 104q0 57 -19 106.5t-56 86.5t-91.5 58t-124.5 22q-47 0 -85 -6.5t-69.5 -18.5t-59 -28t-55.5 -35z" />
<glyph unicode="&#xe57;" horiz-adv-x="1057" d="M68 348q0 76 23 138t60 111t85.5 86t99.5 65l180 -152l178 150q18 -7 40 -19.5t44.5 -27.5t43 -33t36.5 -38v318h119v-596q0 -44 -8 -84.5t-21.5 -76t-30.5 -65.5t-36 -55t-37.5 -44.5t-34.5 -32.5l-94 55q20 22 45 50.5t46.5 66t35.5 83t14 101.5q0 40 -14 79 t-36.5 73.5t-49.5 62.5q-28 27 -54 47l-145 -124q-22 -18 -42.5 -18t-39.5 18l-145 124q-24 -20 -50 -44.5t-46 -56t-33 -71.5t-13 -90q0 -60 17 -107t47 -79t70 -49t86 -17v-102q-60 2 -109 17t-87 40t-65 59t-45 72.5t-26 81t-8 84.5z" />
<glyph unicode="&#xe58;" horiz-adv-x="1030" d="M68 370q0 44 9 88.5t27 85t46.5 74.5t68 59t89.5 39.5t112 14.5h370l150 153l84 -77l-174 -176h-430q-54 -1 -97 -21t-73 -54t-46 -82t-16 -104q0 -37 12 -71t31 -64.5t42 -57t47 -46.5l153 123q18 16 40 16.5t42 -16.5l155 -129q40 20 64 54t24 85q0 21 -6.5 38.5 t-18 31.5t-26 25t-30.5 18l31 100q38 -12 69 -31.5t52 -46t33 -61t12 -76.5q0 -86 -52 -152t-162 -116l-186 150l-186 -150q-52 23 -99.5 60.5t-83 85.5t-56.5 106t-21 124z" />
<glyph unicode="&#xe59;" horiz-adv-x="1145" d="M68 364q0 78 26 146t75 119t121 81t164 30q46 0 84.5 -9t72 -27t62.5 -44.5t56 -61.5q8 30 23 55t39.5 42t58.5 26.5t80 9.5h176v-96h-162q-31 0 -52 -7t-34.5 -19t-21 -28.5t-11 -36t-4 -41t-0.5 -42.5l229 -422l-106 -45l-254 456q-52 92 -110 138q-60 47 -126 47 q-59 0 -107.5 -21t-83.5 -57.5t-55 -85.5t-20 -107q0 -57 21 -106.5t58 -86.5t89 -59t115 -22v-102q-97 0 -172 29t-126.5 80t-78 120t-26.5 147z" />
<glyph unicode="&#xe5a;" horiz-adv-x="1128" d="M90 594q0 50 13.5 93t40.5 74t67.5 49t93.5 18h93v-107h-78q-32 0 -53 -9.5t-34 -26t-18.5 -40t-5.5 -51.5q0 -44 14 -79t41 -59t66.5 -36t91.5 -12q105 0 159 54t54 160v206h123v-828h-123v375q-20 -18 -44.5 -31.5t-52.5 -22.5t-58 -13.5t-58 -4.5q-76 0 -137 19.5 t-104.5 57.5t-67 92t-23.5 122zM891 0v828h123v-828h-123z" />
<glyph unicode="&#xe5b;" horiz-adv-x="1810" d="M100 422q0 60 13.5 109t36 88t53.5 69t66 49t73 29t76 10q39 0 69 -8t53.5 -20t40.5 -26t31 -26l-78 -88q-32 29 -62 42q-28 14 -58 14q-37 0 -72.5 -15.5t-63 -46t-44.5 -75.5t-17 -105q0 -73 25.5 -125t69 -85.5t99 -48.5t115.5 -15q44 0 85 14t77 38.5t66 58t51 73.5 t33 84t12 88q0 26 -4 52q-2 26 -12 56l80 60q18 -18 38.5 -43t42 -53t43 -58t42 -60t38.5 -58t33 -52q16 28 33 61t32.5 65t28.5 60t21 44l55 18l99 -133h306v-99h-356l-53 72q-12 -22 -26 -49t-29.5 -56t-32 -58t-32 -56t-29.5 -49.5t-25 -38.5q-12 20 -25.5 45.5t-29 52.5 t-32 55t-33 55t-32.5 51q-17 24 -31 44q-17 -90 -55.5 -163t-94.5 -124t-127 -78.5t-155 -27.5q-107 0 -187 29.5t-133.5 80.5t-80.5 121t-27 152z" />
<glyph unicode="&#x2000;" horiz-adv-x="818" />
<glyph unicode="&#x2001;" horiz-adv-x="1636" />
<glyph unicode="&#x2002;" horiz-adv-x="818" />
<glyph unicode="&#x2003;" horiz-adv-x="1636" />
<glyph unicode="&#x2004;" horiz-adv-x="545" />
<glyph unicode="&#x2005;" horiz-adv-x="409" />
<glyph unicode="&#x2006;" horiz-adv-x="272" />
<glyph unicode="&#x2007;" horiz-adv-x="272" />
<glyph unicode="&#x2008;" horiz-adv-x="204" />
<glyph unicode="&#x2009;" horiz-adv-x="327" />
<glyph unicode="&#x200a;" horiz-adv-x="90" />
<glyph unicode="&#x200b;" />
<glyph unicode="&#x2010;" horiz-adv-x="688" d="M127 370v107h434v-107h-434z" />
<glyph unicode="&#x2011;" horiz-adv-x="688" d="M127 370v107h434v-107h-434z" />
<glyph unicode="&#x2012;" horiz-adv-x="688" d="M127 370v107h434v-107h-434z" />
<glyph unicode="&#x2013;" horiz-adv-x="829" d="M72 372v103h684v-103h-684z" />
<glyph unicode="&#x2014;" horiz-adv-x="1405" d="M119 372v103h1169v-103h-1169z" />
<glyph unicode="&#x2018;" horiz-adv-x="420" d="M140 926v143l138 129v-272h-138z" />
<glyph unicode="&#x2019;" horiz-adv-x="420" d="M140 832v272h138v-144z" />
<glyph unicode="&#x201c;" horiz-adv-x="671" d="M140 926v143l138 129v-272h-138zM391 926v143l139 129v-272h-139z" />
<glyph unicode="&#x201d;" horiz-adv-x="671" d="M140 832v272h138v-144zM391 832v272h139v-144z" />
<glyph unicode="&#x2022;" horiz-adv-x="919" d="M258 418q0 42 16 78.5t44 64t65 43.5t78 16q42 0 78.5 -16t64.5 -43.5t44 -64t16 -78.5t-16 -79t-44 -64.5t-65 -43.5t-78 -16q-42 0 -78.5 16t-64.5 43.5t-44 64.5t-16 79z" />
<glyph unicode="&#x202f;" horiz-adv-x="327" />
<glyph unicode="&#x205f;" horiz-adv-x="409" />
<glyph unicode="&#x20ac;" horiz-adv-x="975" d="M60 354v96h106v68v66h-106v94h108q2 43 7.5 78.5t16 66.5t28.5 59t46 56q53 54 120.5 81t143.5 27q70 0 130.5 -21.5t107 -62t78 -99.5t45.5 -132h-121q-10 48 -31 86.5t-51 65.5t-70 42t-88 15q-51 0 -97 -18q-47 -20 -79 -52q-17 -18 -28.5 -36t-19.5 -40.5t-12 -51.5 q-6 -28 -8 -64h263v-94h-265v-66v-68h265v-96h-263q2 -36 7 -63t13 -49t20 -40t28 -34q32 -34 79 -53t97 -19q48 0 88 15t71.5 42.5t53 66t31.5 85.5h113l4 -2q-12 -74 -43.5 -132t-78.5 -98.5t-108 -61.5t-131 -21q-76 0 -143.5 28t-120.5 82q-27 26 -44.5 53t-28.5 57.5 t-17 66t-8 77.5h-108z" />
<glyph unicode="&#x2122;" horiz-adv-x="1272" d="M58 946v90h470v-90h-184v-550h-100v550h-186zM616 396v640h92l193 -364l193 364h94v-640h-100v413q-34 -64 -72 -129t-70 -127h-88l-141 258v-415h-101z" />
<glyph unicode="&#x25cc;" horiz-adv-x="1149" d="M278 492l78 38q-4 -22 -4 -42t4 -36zM362 280l27 82q22 -34 55 -55zM372 700l78 -26q-32 -21 -54 -52zM534 708l42 78l36 -76q-18 2 -34 2q-24 0 -44 -4zM538 268q18 -4 40 -4q16 0 30 4l-32 -72zM702 674l86 26l-30 -80q-24 32 -56 54zM704 303q30 20 50 49l20 -72z M796 456q4 14 5 32q-1 18 -5 38l72 -38z" />
<glyph unicode="&#x25fc;" horiz-adv-x="777" d="M0 0v778h778v-778h-778z" />
<glyph unicode="&#xf700;" horiz-adv-x="768" d="M-12 649q20 46 51 80.5t71 58t89.5 36t105.5 12.5q28 0 52.5 -2t47 -7t43 -13t42.5 -20l168 162l84 -78l-166 -157q31 -38 48 -86.5t17 -110.5v-524h-121v280q0 30 -5 52.5t-17 37.5t-33 22.5t-53 7.5h-158v100h174q31 0 54 -6q22 -4 38 -12v22q0 112 -53 169.5 t-162 57.5q-34 0 -65.5 -8.5t-59 -25.5t-49 -42t-33.5 -59z" />
<glyph unicode="&#xf701;" d="M-901 994v98h602v-98h-602z" />
<glyph unicode="&#xf702;" d="M-901 994v98h485v132h117v-230h-602z" />
<glyph unicode="&#xf703;" d="M-901 994v98h354q-3 8 -5 20q-3 10 -3 18q0 29 10.5 54.5t29.5 44.5t44 30t53 11q29 0 54.5 -11t44.5 -30t30 -44t11 -55q0 -28 -11 -53t-30 -43.5t-44.5 -29t-54.5 -10.5h-483zM-469 1130q0 -10 4.5 -19.5t11.5 -16t16 -10.5t19 -4q12 0 22 4t17.5 10.5t12 16t4.5 19.5 q0 12 -4.5 22t-12 17t-17.5 11t-22 4q-10 0 -19 -4t-16 -11t-11.5 -17t-4.5 -22z" />
<glyph unicode="&#xf704;" d="M-901 994v98h329v132h101v-132h71v132h101v-230h-602z" />
<glyph unicode="&#xf705;" d="M-496 996v286h121v-286h-121z" />
<glyph unicode="&#xf706;" d="M-758 998v94q15 0 28 2q11 1 21.5 1.5t14.5 2.5q8 2 16 5t15 9.5t11.5 17t4.5 25.5q0 20 -19.5 31t-58.5 8v104q43 0 77.5 -7t59 -23.5t37.5 -42t13 -59.5q0 -17 -5 -35q-5 -17 -14 -33h233v-100h-434z" />
<glyph unicode="&#xf707;" d="M-801 1138q0 34 8.5 59t21.5 43t29 30t32 22q10 4 21.5 8.5t23 5t23.5 -3t24 -14.5l57 -55l47 47q12 13 24.5 18.5t25 5.5t23 -3t17.5 -7q17 -8 34 -22t31 -33t23 -45q8 -26 8 -56v-48h92v-92h-192v140q0 16 -3 28t-7 20t-10 13t-11 7l-61 -63q-7 -8 -16.5 -12 t-20.5 -4.5t-22 3.5t-19 13l-66 63q-17 -6 -27.5 -20t-10.5 -43q0 -12 6 -23.5t17 -20.5t26 -14t35 -5v-89h-25q-34 0 -62.5 11.5t-50 32t-33.5 47t-12 56.5z" />
<glyph unicode="&#xf708;" d="M-674 1104v100h121v111h109v-111h120v-100h-120v-106h-109v106h-121z" />
<glyph unicode="&#xf709;" d="M-606 998q0 54 13 87.5t33 52t44.5 24.5t48.5 6h143v-99h-132q-12 0 -20.5 -4.5t-13 -13.5t-6.5 -23q-2 -12 -2 -30h-108z" />
<glyph unicode="&#xf70a;" d="M-236 996v286h122v-286h-122z" />
<glyph unicode="&#xf70b;" d="M-518 998v94q15 0 28 2q11 1 21.5 1.5t14.5 2.5q8 2 16 5t15 9.5t11 17t4 25.5q0 20 -19 31t-59 8v104q43 0 77.5 -7t59 -23.5t37.5 -42t13 -59.5q0 -17 -5 -35q-4 -17 -14 -33h273v-100h-473z" />
<glyph unicode="&#xf70c;" d="M-670 1138q0 34 8.5 59t21.5 43t29 30q15 12 31 22q10 4 22 8.5t24 5t24 -3.5q10 -3 22 -14l58 -55l47 47q12 13 24.5 18.5t25 5.5t23 -3t17.5 -7q17 -8 34 -22t31 -33t23 -45t9 -56v-48h157v-92h-258v140q0 16 -2.5 28t-7.5 20t-10 13t-11 7l-61 -63q-7 -8 -17 -12 t-21 -4.5t-21 3.5t-19 13l-65 63q-17 -6 -28.5 -20t-11.5 -43q0 -12 6 -23.5t17 -20.5t27 -14t34 -5v-89h-24q-34 0 -63 11.5t-50 32t-33 47t-12 56.5z" />
<glyph unicode="&#xf70d;" d="M-348 1104v100h120v111h109v-111h121v-100h-121v-106h-109v106h-120z" />
<glyph unicode="&#xf70e;" d="M-354 998q0 36 6 63t16 45.5t23.5 30.5t29 18.5t32 9.5t32.5 3h187v-99h-177q-24 0 -33 -18q-8 -17 -8 -53h-108z" />
<glyph unicode="&#xf70f;" horiz-adv-x="1380" d="M51 610q66 112 160.5 169t222.5 57q90 0 157 -22t111 -63t66 -101t22 -136v-194q0 -54 12 -96t34 -71t56 -44q32 -15 76 -15t77.5 15t56 44t34 71t11.5 96v508h119v-527q0 -63 -16 -119.5t-51.5 -99t-91 -67.5t-134.5 -25q-76 0 -132.5 21t-94 61t-56 98t-18.5 131v199 q0 63 -16 106.5t-46.5 70.5t-75 39.5t-102.5 12.5q-31 0 -63.5 -5.5t-64 -19t-61 -35t-55.5 -53.5l60 -94v-324q0 -20 2.5 -37t10.5 -29t23 -19q16 -7 40 -7h76v-106h-93q-48 0 -81.5 14t-55 39t-31.5 62t-10 81v304z" />
<glyph unicode="&#xf710;" d="M-600 1168h114q0 -36 9 -54t33 -18h481v-98h-498q-24 0 -48.5 7t-44.5 26t-33 52t-13 85z" />
<glyph unicode="&#xf711;" d="M-614 1094q0 30 11.5 57t32 48t47.5 32.5t58 11.5q30 0 56.5 -11.5t47 -32.5t32 -48t11.5 -57t-11.5 -57t-32 -47t-47 -32t-56.5 -12q-31 0 -58 12t-47.5 32t-32 47t-11.5 57zM-522 1094q0 -24 16 -40t41 -16t41 16t16 40q0 25 -16 41t-41 16q-24 0 -40.5 -16t-16.5 -41z " />
<glyph unicode="&#xf712;" d="M-854 1157q0 32 12.5 63.5t36 57t57.5 42t76 18.5h383v-97h-371q-21 0 -36.5 -8t-26.5 -20.5t-17 -27t-6 -28.5q0 -23 12 -45q12 -23 30 -37l80 72q6 6 14 9.5t17 3.5t17.5 -3t14.5 -8l84 -74q20 11 27 35q6 24 -2 68h108q9 -42 1.5 -78t-27.5 -64t-52 -47t-70 -27 l-100 88q-23 -22 -48.5 -44t-47.5 -44q-36 10 -66 27t-52 41t-35 55t-13 72z" />
<glyph unicode="&#xf713;" d="M-416 1317v183h118v-183h-118z" />
<glyph unicode="&#xf714;" d="M-553 1319v94q15 1 28 3q11 1 21 1.5t14 2.5q8 2 16.5 5t15 9t11.5 16t5 26q0 20 -20 31t-58 9v104q43 0 77.5 -7.5t58.5 -24t37 -41.5t13 -60q0 -17 -4 -35t-14 -32h240v-101h-441z" />
<glyph unicode="&#xf715;" d="M-758 1460q0 34 8.5 59t21.5 43.5t29 31.5q15 12 31 20q10 4 22 8t24 5t24 -3q10 -4 22 -14l58 -56l47 48q12 13 24.5 18t25 5.5t23 -2.5t17.5 -7q17 -8 34 -22t31 -33.5t23 -44.5q9 -26 9 -56v-49h110v-92h-211v141q0 16 -2.5 28t-7.5 20t-10 13t-11 7l-61 -64 q-8 -7 -17.5 -10.5t-20.5 -4.5t-21 3t-19 12l-65 64q-17 -6 -28.5 -20t-11.5 -44q0 -11 6 -21.5t17 -18.5t27 -13.5t34 -5.5v-92h-24q-34 0 -63 11.5t-50 32t-33 47t-12 56.5z" />
<glyph unicode="&#xf716;" d="M-528 1426v100h120v110h109v-110h121v-100h-121v-107h-109v107h-120z" />
<glyph unicode="&#xf717;" d="M-412 1216q0 54 13 88t33 52t45 24t49 6h153v-98h-143q-12 0 -20 -4.5t-13 -13.5t-6.5 -22.5t-1.5 -31.5h-109z" />
<glyph unicode="&#xf718;" d="M-318 -338h52q42 0 71 -6t47 -23t26 -49t8 -82v-126h-118v124q0 19 -2 30.5t-7 17.5t-14 8t-21 2h-42v104z" />
<glyph unicode="&#xf719;" d="M-520 -340h64q33 0 54.5 -6.5t35 -21t19 -36.5t5.5 -55v-10q0 -9 3 -19t9 -19t17 -14t29 -5q17 0 27.5 5t16.5 14t8 19t2 19v129h116v-129q0 -36 -13 -64.5t-36 -49.5t-54 -32t-67 -11q-39 0 -70.5 11t-54 32t-34 49.5t-11.5 64.5q0 16 -6 21.5t-19 5.5h-41v102z" />
<glyph unicode="&#xf71a;" d="M-278 -426q0 17 6 31.5t17.5 26t26 18t32.5 6.5q17 0 31.5 -6.5t25.5 -18t18 -26t7 -31.5t-7 -31.5t-18 -26t-26 -18t-31 -6.5q-17 0 -32 6.5t-26.5 18t-17.5 26t-6 31.5z" />
<glyph unicode="&#xf71d;" horiz-adv-x="1116" d="M64 828h122l86 -560l6 -65l15 65l205 560h110l203 -560l17 -63l6 63l57 363q4 44 -23 67.5t-92 24.5v105h86q24 0 42.5 5.5t32 16t21.5 25.5t13 33l23 75h124l-32 -109q-8 -26 -19 -45t-25 -35t-31 -28t-36 -20q20 -23 29.5 -54.5t5.5 -63.5l-107 -628h-109l-235 637 l-6 27l-6 -27l-235 -637h-112z" />
<glyph unicode="&#xf881;" horiz-adv-x="1526" d="M51 610q66 114 160.5 170t222.5 56q90 0 157 -22t111 -63t66 -100.5t22 -136.5v-823h-118v811q0 62 -16 105.5t-46.5 71t-75 40t-102.5 12.5q-31 0 -63.5 -5.5t-64 -19.5t-61 -36t-55.5 -54l60 -92v-326q0 -20 2.5 -37t10.5 -29t23 -19q16 -7 40 -7h76v-106h-93 q-48 0 -81.5 14t-55 39t-31.5 62t-10 81v306zM891 706q38 62 102.5 96t151.5 34q66 0 115.5 -18t83.5 -53t50.5 -85t16.5 -115v-874h-119v870q0 38 -7.5 69.5t-25 53.5t-45.5 34.5t-69 12.5q-53 0 -93 -19.5t-67 -59.5z" />
<glyph unicode="&#xf882;" horiz-adv-x="1562" d="M58 106q42 -2 63 9t31 28t11 37t1 37v285l-78 108q66 114 161 170t222 56q90 0 156.5 -22t111.5 -63t67 -100.5t24 -136.5v-821h-122v809q0 62 -15.5 105.5t-46 71t-75.5 40t-102 12.5q-31 0 -62.5 -5t-62.5 -17.5t-61.5 -33.5t-57.5 -55l61 -92v-332q0 -44 -10 -75.5 t-27 -53t-39 -35t-45 -21t-45 -9.5t-40 -2zM928 706q39 62 103 96q65 34 151 34q66 0 116 -18t83 -53t50 -85t17 -115v-874h-119v870q0 38 -7.5 69.5t-25.5 53.5t-46 34.5t-68 12.5q-52 0 -93 -19.5t-67 -59.5z" />
<glyph d="M-614 1002q0 44 6 73t18 47.5t28 27.5q16 8 34 11q4 27 18 42t32.5 23t39.5 10q20 1 38 1h86v-94h-75q-13 0 -20.5 -2.5t-11 -10t-4.5 -21t-1 -34.5h-64q-4 0 -7 -5.5t-4.5 -15.5t-2.5 -24v-28h-110z" />
<glyph horiz-adv-x="637" d="M-608 1094q0 30 12 57t32 48t47 32.5t58 11.5q30 0 56.5 -11.5t47 -32.5t32 -48t11.5 -57t-11.5 -57t-32 -47t-47 -32t-56.5 -12t-57.5 12t-47.5 32t-32 47t-12 57zM-516 1094q0 -24 16 -40t41 -16t41 16t16 40q0 25 -16 41t-41 16q-24 0 -40.5 -16t-16.5 -41zM2 706 q38 62 103 96t151 34q66 0 116 -18t83 -53t50 -85t17 -115v-565h-118v561q0 38 -8 69.5t-25.5 53.5t-46 34.5t-68.5 12.5q-52 0 -93 -19.5t-67 -59.5z" />
<glyph horiz-adv-x="637" d="M-608 1094q0 30 12 57t32 48t47 32.5t58 11.5q30 0 56.5 -11.5t47 -32.5t32 -48t11.5 -57t-11.5 -57t-32 -47t-47 -32t-56.5 -12t-57.5 12t-47.5 32t-32 47t-12 57zM-516 1094q0 -24 16 -40t41 -16t41 16t16 40q0 25 -16 41t-41 16q-24 0 -40.5 -16t-16.5 -41zM2 706 q38 62 103 96t151 34q66 0 116 -18t83 -53t50 -85t17 -115v-565h-118v561q0 38 -8 69.5t-25.5 53.5t-46 34.5t-68.5 12.5q-52 0 -93 -19.5t-67 -59.5z" />
<glyph d="M-700 994v98h586v-98h-586z" />
<glyph d="M-700 994v98h468v132h118v-230h-586z" />
<glyph d="M-700 994v98h334q-3 8 -6 20q-3 10 -3 18q0 29 10.5 54.5t29.5 44.5t44 30t53 11q29 0 54.5 -11t44.5 -30t30 -44t11 -55q0 -28 -11 -53t-30 -43.5t-44 -29t-55 -10.5h-462zM-289 1130q0 -10 4.5 -19.5t11.5 -16t16 -10.5t19 -4q12 0 22 4t17.5 10.5t12 16t4.5 19.5 q0 12 -4.5 22t-12 17t-17.5 11t-22 4q-10 0 -19 -4t-16 -11t-11.5 -17t-4.5 -22z" />
<glyph d="M-700 994v98h313v132h101v-132h71v132h101v-230h-586z" />
<glyph d="M-1020 994v98h750v-98h-750z" />
<glyph d="M-1020 994v98h633v132h117v-230h-750z" />
<glyph d="M-1020 994v98h506q-3 8 -6 20q-4 10 -4 18q0 29 10.5 54.5t29 44.5t43.5 30t54 11t54.5 -11t44 -30t29.5 -44t11 -55q0 -28 -11 -53t-29.5 -43.5t-44 -29t-54.5 -10.5h-633zM-438 1130q0 -10 4 -19.5t11 -16t16.5 -10.5t19.5 -4q12 0 21.5 4t17.5 10.5t12 16t4 19.5 q0 12 -4 22t-12 17t-18 11t-21 4q-10 0 -19.5 -4t-16.5 -11t-11 -17t-4 -22z" />
<glyph d="M-1020 994v98h478v132h100v-132h72v132h100v-230h-750z" />
<glyph d="M-388 1317v183h118v-183h-118z" />
<glyph d="M-540 1317v94q16 0 28 2q11 1 21 2t14 2q8 2 16.5 5.5t15 9.5t11.5 16q4 10 4 26q0 20 -19.5 31t-58.5 9v104q43 0 77.5 -7.5t58.5 -24t37 -41.5t13 -60q0 -17 -4 -35t-14 -33h240v-100h-440z" />
<glyph d="M-727 1458q0 34 8.5 59t21.5 43.5t29 31t31 20.5q10 4 21.5 8t23.5 5t24 -3t23 -14l57 -56l48 48q12 13 24.5 18t25 5.5t22.5 -2.5t18 -7q17 -8 33.5 -22t30.5 -33.5t23 -44.5q9 -26 9 -56v-49h110v-92h-210v141q0 16 -3 28t-7.5 20t-10 13t-10.5 7l-61 -64 q-8 -7 -18 -10.5t-21 -4.5t-21 3t-18 12l-66 64q-17 -6 -28 -20t-11 -44q0 -11 6 -21.5t17 -18.5t26.5 -13.5t34.5 -5.5v-92h-25q-34 0 -62.5 11.5t-49.5 32t-33 47t-12 56.5z" />
<glyph d="M-500 1424v100h121v110h109v-110h120v-100h-120v-107h-109v107h-121z" />
<glyph d="M-1016 994v98h902v-98h-902z" />
<glyph d="M-1016 994v98h784v132h118v-230h-902z" />
<glyph d="M-1016 994v98h650q-3 8 -6 20q-3 10 -3 18q0 29 10.5 54.5t29.5 44.5t44 30t53 11q29 0 54.5 -11t44.5 -30t30 -44t11 -55q0 -28 -11 -53t-30 -43.5t-44 -29t-55 -10.5h-778zM-289 1130q0 -10 4.5 -19.5t11.5 -16t16 -10.5t19 -4q12 0 22 4t17.5 10.5t12 16t4.5 19.5 q0 12 -4.5 22t-12 17t-17.5 11t-22 4q-10 0 -19 -4t-16 -11t-11.5 -17t-4.5 -22z" />
<glyph d="M-1016 994v98h629v132h101v-132h71v132h101v-230h-902z" />
<glyph d="M-232 1267v233h118v-233h-118z" />
<glyph d="M-385 1267v94q15 0 28 2q11 1 21 2t14 2q8 2 16.5 5.5t15 9.5t11.5 16t5 26q0 20 -20 31t-58 9v104q43 0 77.5 -7.5t58.5 -24t37 -41.5t13 -60q0 -17 -4 -35t-14 -33h240v-100h-441z" />
<glyph d="M-574 1408q0 34 8.5 59t21.5 43t29 31q15 13 31 21q11 4 22.5 8t23.5 5t24 -3t23 -14l57 -56l48 48q12 13 24 18t25 5.5t23 -2.5t18 -7q17 -8 33.5 -22t30.5 -33.5t23 -45t9 -55.5v-49h132v-92h-232v141q0 16 -3 28t-7.5 20t-10 13t-11.5 7l-61 -64q-8 -7 -17.5 -10.5 t-20.5 -4.5t-21 3t-18 12l-66 64q-18 -6 -28.5 -20t-10.5 -44q0 -11 6 -21.5t16.5 -18.5t26.5 -13.5t35 -5.5v-93h-25q-34 0 -63 12t-50 32t-33 47t-12 57z" />
<glyph d="M-346 1374v100h120v110h110v-110h120v-100h-120v-107h-110v107h-120z" />
<glyph d="M-807 994v98h667v-98h-667z" />
<glyph d="M-807 994v98h551v132h116v-230h-667z" />
<glyph d="M-408 956q0 54 13 88t33 52t45 24t49 6h186v-98h-176q-12 0 -20 -4.5t-13 -13.5t-6.5 -22.5t-1.5 -31.5h-109z" />
<glyph horiz-adv-x="762" d="M102 264v304q0 63 21 114t58 87.5t88 56.5t110 20q60 0 111 -20t88.5 -56.5t58.5 -88t21 -113.5v-304q0 -63 -21 -114.5t-58.5 -87.5t-88.5 -56t-111 -20t-110.5 20t-87.5 56t-58 87.5t-21 114.5zM215 270q0 -39 11 -72.5t32 -58.5t51.5 -39t69.5 -14q40 0 71 14t52 39 t32 59t11 72v291q0 39 -11 73t-32 58.5t-52 39t-71 14.5q-39 0 -69.5 -14.5t-51.5 -39t-32 -58.5t-11 -73v-291z" />
<glyph horiz-adv-x="680" d="M129 528v132l203 168h114v-828h-116v702z" />
<glyph horiz-adv-x="762" d="M104 0v96l338 322q18 17 33.5 37.5t27 43t17.5 46t6 45.5q0 32 -11 60t-30.5 48.5t-47 33t-60.5 12.5q-32 0 -59.5 -12.5t-48.5 -34.5t-34 -52q-13 -29 -14 -65h-115q2 54 23.5 101t57.5 83t84.5 57t105.5 21q59 0 108 -20t83.5 -53.5t53.5 -79t19 -97.5q0 -36 -7.5 -68 t-22.5 -61.5t-36 -57t-49 -53.5l-262 -248h402v-104h-562z" />
<glyph horiz-adv-x="762" d="M47 66h117q3 -48 20.5 -83t45 -57t62.5 -32q34 -10 72 -10q44 0 82 13t65 37.5t43 60t16 81.5q0 48 -12.5 85t-38 62t-64.5 38t-93 13h-26v101h26q96 0 141.5 48.5t45.5 135.5q0 44 -14.5 78.5t-39 57.5t-58 35t-73.5 12q-42 0 -75 -12t-57 -34t-38 -53t-18 -71h-116 q4 64 29 113.5t65.5 84t94.5 52.5q53 18 115 18q66 0 122 -20t96 -56t62 -88t22 -117q0 -80 -34 -137q-36 -58 -102 -92q78 -29 117 -93.5t39 -162.5q0 -72 -25 -126.5t-69 -91.5t-102 -56q-60 -19 -126 -19q-64 0 -120 17.5t-99 52.5t-69 89t-29 126z" />
<glyph horiz-adv-x="762" d="M49 0v100l371 748h120l-368 -744h301v287h111v-287h126v-104h-126v-213h-111v213h-424z" />
<glyph horiz-adv-x="762" d="M90 45h115q9 -77 53 -119t125 -42q42 0 76 12t57 34q20 18 31 43t16.5 52t7 56t1.5 56q0 30 -3 60.5t-10 58.5t-19 51t-31.5 41t-47 27.5t-65.5 9.5q-34 0 -64 -7.5t-52 -20.5t-38 -31q-16 -20 -23 -42h-103v546h550v-99h-447v-313q34 29 81.5 47.5t107.5 18.5 q64 0 110 -19t78 -49q30 -29 49 -62.5t29 -69.5t13 -73t3 -74q0 -38 -3 -75t-12 -71.5t-27 -66.5t-48 -61q-38 -39 -91 -60.5t-126 -21.5q-70 0 -125 21.5t-92 55.5q-36 36 -53.5 83t-22.5 104z" />
<glyph horiz-adv-x="762" d="M53 320q0 30 5.5 60t15.5 61t23.5 63t29.5 68l243 464h128l-214 -412q28 12 58 20t62 8q44 0 83 -11t72.5 -32t61 -49.5t46.5 -64.5t29 -77.5t10 -87.5q0 -72 -22.5 -134t-65 -107t-102.5 -71t-135 -26q-74 0 -134.5 23.5t-103.5 66.5t-66.5 103.5t-23.5 134.5zM170 326 q0 -52 15 -94t43 -72t66.5 -47t84.5 -17q47 0 86.5 17t68 47t44.5 72t16 94q0 46 -14 86t-42 70.5t-68 48.5t-91 18q-46 0 -84.5 -15.5t-66.5 -45t-43 -71t-15 -91.5z" />
<glyph horiz-adv-x="762" d="M96 572v258h602v-97l-370 -940h-125l373 938h-365v-159h-115z" />
<glyph horiz-adv-x="762" d="M60 284q0 46 11.5 85t32 70t49 56t62.5 43q-30 18 -54.5 41t-42 51t-27 63t-9.5 75q0 60 22.5 111t62.5 88t94.5 57t119.5 20q64 0 119.5 -20t95.5 -57t63 -88t23 -111q0 -40 -10 -75t-27 -63t-42 -51t-56 -41q33 -18 61 -43t49 -56t32 -70t11 -85q0 -64 -24 -118 t-67 -93t-101.5 -61t-126.5 -22t-126.5 22t-102 61t-68 93t-24.5 118zM176 286q0 -42 15.5 -77t43 -61t65 -41t81.5 -15t81.5 15t64.5 41t43 61t16 77q0 43 -16 79.5t-43 63.5t-65 42t-81 15q-44 0 -81.5 -15t-65 -42t-43 -63t-15.5 -80zM198 766q0 -40 14 -74t38 -57 t57.5 -36t73.5 -13q42 0 75.5 13t57 36t36.5 57t13 74q0 39 -13 72.5t-36.5 57.5t-57.5 38t-75 14q-40 0 -73.5 -14t-57.5 -38t-38 -57.5t-14 -72.5z" />
<glyph horiz-adv-x="762" d="M53 502q0 72 22.5 133.5t64.5 106.5t102 70.5t135 25.5q74 0 134.5 -23.5t104 -66t67 -102.5t23.5 -134q0 -32 -5 -62t-15 -60t-23.5 -62t-29.5 -68l-244 -465h-127l211 410q-26 -11 -55 -18q-30 -7 -62 -7q-66 0 -121 24t-95.5 67.5t-63.5 102.5t-23 128zM166 506 q0 -46 14 -86t41.5 -71t67 -49t90.5 -18q47 0 86 16t66.5 45t43 70.5t15.5 92.5q0 52 -15.5 94t-43 72t-66.5 46.5t-86 16.5t-86 -16.5t-67 -46.5t-44 -72t-16 -94z" />
<glyph d="M-672 1172q0 32 13 64t36.5 58t57 42t75.5 16h384v-96h-371q-21 0 -37 -8t-27 -20.5t-16.5 -27t-5.5 -28.5q0 -24 11 -46t30 -36l80 71q6 6 14 9.5t17 3.5t17.5 -3t14.5 -7l84 -74q20 11 27 34q8 24 -2 68h108q10 -42 2 -78t-28 -64t-51.5 -47t-69.5 -26l-101 88 q-24 -22 -49 -44.5t-47 -43.5q-36 10 -66 26.5t-52 40.5t-35 56t-13 72z" />
<glyph d="M-600 1164h114q0 -36 9 -54t33 -18h563v-98h-580q-24 0 -48.5 7t-44.5 26t-33 52t-13 85z" />
<glyph d="M-416 1236v283h117v-283h-117z" />
<glyph d="M-731 1236v94q15 1 28 3q11 1 21 2t14 2q8 2 16.5 5t15 9.5t11.5 16.5t5 26q0 20 -20 31t-58 8v105q43 0 77.5 -8t58.5 -24t37 -41t13 -61q0 -17 -4 -34q-4 -18 -14 -33h229v-101h-430z" />
<glyph d="M-880 1378q0 34 8 59t21 43t29 30q16 14 32 22q10 4 21.5 8t23 5t23.5 -3t24 -14l57 -56l47 47q12 13 25 18t25 6t22 -3q11 -2 18 -6q17 -8 34 -22t31 -34t22.5 -45t8.5 -55v-50h111v-92h-211v142q0 16 -3 28t-7 20t-10 12q-6 6 -10 8l-62 -64q-8 -7 -18 -11t-20.5 -4.5 t-21 3.5t-18.5 12l-66 64q-17 -6 -27.5 -20.5t-10.5 -43.5q0 -11 6 -21.5t17 -19t26 -14t35 -5.5v-92h-25q-34 0 -62.5 12t-49.5 32t-33 47t-12 57z" />
<glyph d="M-528 1343v101h120v110h109v-110h121v-101h-121v-107h-109v107h-120z" />
<glyph d="M-232 1235v283h118v-283h-118z" />
<glyph d="M-385 1235v94q15 1 28 3q11 1 21 1.5t14 2.5q8 2 16.5 5t15 9t11.5 16t5 26q0 20 -20 31t-58 9v104q43 0 77.5 -7.5t58.5 -24t37 -41.5t13 -60q0 -17 -4 -35q-4 -16 -14 -32h240v-101h-441z" />
<glyph d="M-574 1376q0 34 8.5 59t21.5 43t29 31q15 13 31 21q11 4 22.5 8t23.5 5t24 -3t23 -14l57 -56l48 48q12 13 24 18t25 5.5t23 -2.5t18 -7q17 -8 33.5 -22t30.5 -33.5t23 -45t9 -55.5v-49h132v-92h-232v141q0 16 -3 28t-7.5 20t-10 13t-11.5 7l-61 -64q-8 -7 -17.5 -10.5 t-20.5 -4.5t-21 3t-18 12l-66 64q-18 -6 -28.5 -20t-10.5 -44q0 -11 6 -21.5t16.5 -18.5t26.5 -13.5t35 -5.5v-93h-25q-34 0 -63 12t-50 32t-33 47t-12 57z" />
<glyph d="M-346 1342v100h120v110h110v-110h120v-100h-120v-107h-110v107h-120z" />
<glyph d="M-516 1317v183h118v-183h-118z" />
<glyph d="M-628 1426v100h120v110h109v-110h121v-100h-121v-107h-109v107h-120z" />
</font>
</defs>
</svg>
